<svg width="18" height="18" viewBox="0 0 18 18" fill="none" xmlns="http://www.w3.org/2000/svg">
<g clip-path="url(#clip0_698_19742)">
<path d="M16.9161 10.2468L15.4911 5.11976C15.0734 3.61776 14.1657 2.29847 12.9121 1.37161C11.6586 0.444746 10.1312 -0.0365041 8.57271 0.004356C7.01425 0.0452161 5.51417 0.605841 4.31091 1.59712C3.10765 2.58839 2.27027 3.95343 1.93186 5.47526L0.828614 10.4365C0.706751 10.9847 0.709568 11.5533 0.836859 12.1002C0.964149 12.6472 1.21266 13.1586 1.56405 13.5967C1.91544 14.0347 2.36073 14.3883 2.86705 14.6312C3.37337 14.8742 3.92778 15.0003 4.48936 15.0003H5.32486C5.497 15.848 5.95691 16.6101 6.62667 17.1575C7.29643 17.705 8.13485 18.004 8.99986 18.004C9.86488 18.004 10.7033 17.705 11.3731 17.1575C12.0428 16.6101 12.5027 15.848 12.6749 15.0003H13.3034C13.8815 15.0003 14.4518 14.8667 14.9697 14.6098C15.4876 14.353 15.9391 13.9799 16.289 13.5197C16.6388 13.0594 16.8775 12.5245 16.9865 11.9568C17.0954 11.389 17.0708 10.8038 16.9161 10.2468ZM8.99986 16.5003C8.53617 16.4983 8.08439 16.3532 7.70634 16.0847C7.32829 15.8162 7.04243 15.4374 6.88787 15.0003H11.1119C10.9573 15.4374 10.6714 15.8162 10.2934 16.0847C9.91534 16.3532 9.46356 16.4983 8.99986 16.5003ZM15.0944 12.6115C14.8854 12.8888 14.6146 13.1134 14.3036 13.2677C13.9925 13.422 13.6498 13.5016 13.3026 13.5003H4.48936C4.15245 13.5002 3.81986 13.4245 3.51612 13.2787C3.21239 13.1329 2.94527 12.9208 2.73449 12.6579C2.5237 12.3951 2.37463 12.0883 2.29829 11.7601C2.22194 11.432 2.22025 11.0909 2.29336 10.762L3.39586 5.80001C3.66163 4.60466 4.31934 3.53246 5.26446 2.75384C6.20957 1.97523 7.38783 1.53488 8.61195 1.50282C9.83606 1.47075 11.0358 1.84879 12.0203 2.57686C13.0049 3.30492 13.7179 4.34122 14.0459 5.52101L15.4709 10.648C15.565 10.982 15.58 11.3334 15.5147 11.6743C15.4493 12.0151 15.3054 12.336 15.0944 12.6115Z" fill="#4A4A4A"/>
</g>
<defs>
<clipPath id="clip0_698_19742">
<rect width="18" height="18" fill="white"/>
</clipPath>
</defs>
</svg>
