<svg width="176" height="49" viewBox="0 0 176 49" fill="none" xmlns="http://www.w3.org/2000/svg">
<path fill-rule="evenodd" clip-rule="evenodd" d="M55.3739 14.5384C55.3258 14.5563 55.2355 14.6306 55.1732 14.7036C54.9538 14.9608 54.9419 15.3082 55.1429 15.583C55.3098 15.811 55.2352 15.7996 56.6595 15.816L57.9325 15.8306L58.1794 16.8248C58.8409 19.4889 59.1996 20.9381 59.4133 21.8108C59.5019 22.1727 59.5861 22.5149 59.6003 22.5712C59.6146 22.6275 59.9973 24.1671 60.4508 25.9926C60.9044 27.8182 61.2997 29.4083 61.3292 29.5263C61.3997 29.8077 61.4931 29.9554 61.6571 30.0447L61.7869 30.1154L67.1898 30.1157C71.163 30.1159 72.6152 30.1072 72.6777 30.0827C73.1318 29.9049 73.1955 29.1809 72.782 28.8967L72.6627 28.8146L67.4898 28.8L62.3169 28.7854L62.2232 28.4052C62.1716 28.1961 62.072 27.7935 62.0019 27.5104C61.9318 27.2274 61.8744 26.9872 61.8744 26.9767C61.8744 26.9662 64.204 26.9577 67.0512 26.9577C70.7446 26.9577 72.2595 26.9484 72.3377 26.9254C72.3979 26.9076 72.4944 26.8459 72.5521 26.7881C72.7398 26.6002 72.7963 26.3323 72.7086 26.0461L72.6667 25.9094L73.5315 22.917C74.0072 21.2712 74.4491 19.7442 74.5135 19.5235C74.5994 19.2291 74.6432 19.1178 74.6781 19.1048C74.8267 19.0497 74.9998 18.7436 75 18.5356C75.0002 18.2769 74.8622 18.0237 74.6629 17.9176C74.5668 17.8664 74.265 17.8642 67.0857 17.8636L59.6085 17.863L59.241 16.3789C58.8347 14.7381 58.8281 14.7198 58.6022 14.5817L58.4685 14.5L56.965 14.503C55.9398 14.505 55.4336 14.5163 55.3739 14.5384ZM62.8913 20.3925C62.9633 21.052 63.0227 21.6211 63.0234 21.6573L63.0245 21.7231H61.8009C61.1279 21.7231 60.5715 21.7122 60.5645 21.6989C60.5465 21.6649 59.9493 19.2488 59.9493 19.2101C59.9493 19.1877 60.3596 19.1807 61.3549 19.186L62.7604 19.1936L62.8913 20.3925ZM66.1247 20.4514V21.7238L65.1443 21.7162L64.1638 21.7085L64.0329 20.5095C63.9609 19.8501 63.9015 19.2809 63.9008 19.2447L63.8996 19.1789H65.0121H66.1247V20.4514ZM69.4917 19.2886C69.4836 19.3489 69.4261 19.872 69.3638 20.451C69.3016 21.03 69.2439 21.5533 69.2356 21.6138L69.2205 21.7238L68.2414 21.7162L67.2623 21.7085L67.2558 20.4437L67.2493 19.1789H68.3778H69.5064L69.4917 19.2886ZM73.3914 19.2887C73.3756 19.349 73.211 19.9215 73.0256 20.5607L72.6885 21.7231H71.5181H70.3478L70.3617 21.6281C70.3762 21.5287 70.6251 19.2335 70.6251 19.1988C70.6251 19.1879 71.2539 19.1789 72.0225 19.1789H73.42L73.3914 19.2887ZM63.1845 23.1195C63.2053 23.2386 63.4495 25.5061 63.4495 25.5795V25.6424L62.4945 25.6348L61.5394 25.6271L61.4716 25.3639C61.3493 24.8894 60.8993 23.0756 60.8993 23.0571C60.8993 23.0472 61.4104 23.0391 62.035 23.0391H63.1705L63.1845 23.1195ZM66.1247 24.3404V25.6417H65.3614C64.7729 25.6417 64.5957 25.6334 64.5877 25.6052C64.582 25.5851 64.5203 25.0291 64.4506 24.3696C64.3808 23.7102 64.3181 23.1411 64.3112 23.1049L64.2986 23.0391H65.2117H66.1247V24.3404ZM69.0749 23.0736C69.0749 23.1139 68.832 25.37 68.8102 25.5325L68.7954 25.6426L68.0289 25.6348L67.2623 25.6271L67.2558 24.3331L67.2493 23.0391H68.1621C68.8468 23.0391 69.0749 23.0477 69.0749 23.0736ZM72.2863 23.1049C72.241 23.278 71.5964 25.5184 71.5753 25.5759L71.5512 25.6417H70.7521C70.3126 25.6417 69.9481 25.6319 69.9421 25.6198C69.9361 25.6077 69.9912 25.0517 70.0646 24.3843C70.1379 23.7168 70.1984 23.1411 70.199 23.1049L70.2 23.0391H71.2518H72.3036L72.2863 23.1049ZM63.4695 31.0093C62.9711 31.1507 62.5171 31.67 62.366 32.2717C62.2235 32.8387 62.3473 33.4541 62.691 33.8884C62.9358 34.1977 63.1908 34.3694 63.5398 34.4603C64.1926 34.6301 64.8586 34.2346 65.1608 33.4977C65.2851 33.1946 65.3248 33.0068 65.3243 32.7245C65.3233 32.2225 65.1113 31.7016 64.7781 31.3826C64.4174 31.0372 63.8958 30.8884 63.4695 31.0093ZM70.2162 31.0103C69.9697 31.0801 69.7326 31.2443 69.525 31.4888C69.3215 31.7285 69.2122 31.9405 69.1247 32.2653C69.0493 32.5451 69.0479 32.976 69.1216 33.245C69.3578 34.1077 70.181 34.6619 70.9225 34.4575C71.3904 34.3285 71.8033 33.8877 71.9898 33.3181C72.0782 33.0482 72.1004 32.6178 72.0404 32.3383C71.8999 31.6838 71.4771 31.1914 70.9099 31.0217C70.6862 30.9548 70.4273 30.9506 70.2162 31.0103Z" fill="#636363"/>
<path d="M82.125 20.4336H84.6738C85.7793 20.4336 86.6133 20.5938 87.1758 20.9141C87.7383 21.2344 88.0195 21.7871 88.0195 22.5723C88.0195 22.9004 87.9609 23.1973 87.8438 23.4629C87.7305 23.7246 87.5645 23.9414 87.3457 24.1133C87.127 24.2812 86.8574 24.3945 86.5371 24.4531V24.5117C86.8691 24.5703 87.1641 24.6738 87.4219 24.8223C87.6836 24.9707 87.8887 25.1836 88.0371 25.4609C88.1895 25.7383 88.2656 26.0977 88.2656 26.5391C88.2656 27.0625 88.1406 27.5078 87.8906 27.875C87.6445 28.2422 87.291 28.5215 86.8301 28.7129C86.373 28.9043 85.8301 29 85.2012 29H82.125V20.4336ZM83.5312 23.9668H84.8789C85.5156 23.9668 85.957 23.8633 86.2031 23.6562C86.4492 23.4492 86.5723 23.1465 86.5723 22.748C86.5723 22.3418 86.4258 22.0488 86.1328 21.8691C85.8438 21.6895 85.3828 21.5996 84.75 21.5996H83.5312V23.9668ZM83.5312 25.1035V27.8223H85.0137C85.6699 27.8223 86.1309 27.6953 86.3965 27.4414C86.6621 27.1875 86.7949 26.8438 86.7949 26.4102C86.7949 26.1445 86.7344 25.9141 86.6133 25.7188C86.4961 25.5234 86.3027 25.373 86.0332 25.2676C85.7637 25.1582 85.4004 25.1035 84.9434 25.1035H83.5312ZM95.5488 22.5137V29H94.4648L94.2773 28.127H94.2012C94.0645 28.3496 93.8906 28.5352 93.6797 28.6836C93.4688 28.8281 93.2344 28.9355 92.9766 29.0059C92.7188 29.0801 92.4473 29.1172 92.1621 29.1172C91.6738 29.1172 91.2559 29.0352 90.9082 28.8711C90.5645 28.7031 90.3008 28.4453 90.1172 28.0977C89.9336 27.75 89.8418 27.3008 89.8418 26.75V22.5137H91.2246V26.4922C91.2246 26.9961 91.3262 27.373 91.5293 27.623C91.7363 27.873 92.0566 27.998 92.4902 27.998C92.9082 27.998 93.2402 27.9121 93.4863 27.7402C93.7324 27.5684 93.9062 27.3145 94.0078 26.9785C94.1133 26.6426 94.166 26.2305 94.166 25.7422V22.5137H95.5488ZM96.5449 22.5137H98.0449L99.375 26.2168C99.4336 26.3848 99.4863 26.5508 99.5332 26.7148C99.584 26.875 99.627 27.0332 99.6621 27.1895C99.7012 27.3457 99.7324 27.502 99.7559 27.6582H99.791C99.8301 27.4551 99.8848 27.2285 99.9551 26.9785C100.029 26.7246 100.111 26.4707 100.201 26.2168L101.479 22.5137H102.961L100.178 29.8906C100.018 30.3125 99.8203 30.6719 99.5859 30.9688C99.3555 31.2695 99.082 31.4961 98.7656 31.6484C98.4492 31.8047 98.0879 31.8828 97.6816 31.8828C97.4863 31.8828 97.3164 31.8711 97.1719 31.8477C97.0273 31.8281 96.9043 31.8066 96.8027 31.7832V30.6816C96.8848 30.7012 96.9883 30.7188 97.1133 30.7344C97.2383 30.75 97.3672 30.7578 97.5 30.7578C97.7461 30.7578 97.959 30.709 98.1387 30.6113C98.3184 30.5137 98.4707 30.375 98.5957 30.1953C98.7207 30.0195 98.8242 29.8184 98.9062 29.5918L99.1348 28.9824L96.5449 22.5137ZM105.322 22.5137V29H103.945V22.5137H105.322ZM104.643 20.0293C104.854 20.0293 105.035 20.0859 105.188 20.1992C105.344 20.3125 105.422 20.5078 105.422 20.7852C105.422 21.0586 105.344 21.2539 105.188 21.3711C105.035 21.4844 104.854 21.541 104.643 21.541C104.424 21.541 104.238 21.4844 104.086 21.3711C103.938 21.2539 103.863 21.0586 103.863 20.7852C103.863 20.5078 103.938 20.3125 104.086 20.1992C104.238 20.0859 104.424 20.0293 104.643 20.0293ZM110.678 22.3906C111.408 22.3906 111.977 22.5801 112.383 22.959C112.793 23.334 112.998 23.9375 112.998 24.7695V29H111.621V25.0273C111.621 24.5234 111.518 24.1465 111.311 23.8965C111.104 23.6426 110.783 23.5156 110.35 23.5156C109.721 23.5156 109.283 23.709 109.037 24.0957C108.795 24.4824 108.674 25.043 108.674 25.7773V29H107.297V22.5137H108.369L108.562 23.3926H108.639C108.779 23.166 108.953 22.9805 109.16 22.8359C109.371 22.6875 109.605 22.5762 109.863 22.502C110.125 22.4277 110.396 22.3906 110.678 22.3906ZM116.777 31.8828C115.898 31.8828 115.225 31.7246 114.756 31.4082C114.287 31.0918 114.053 30.6484 114.053 30.0781C114.053 29.6797 114.178 29.3418 114.428 29.0645C114.678 28.791 115.035 28.6016 115.5 28.4961C115.324 28.418 115.172 28.2969 115.043 28.1328C114.918 27.9648 114.855 27.7793 114.855 27.5762C114.855 27.334 114.924 27.127 115.061 26.9551C115.197 26.7832 115.402 26.6172 115.676 26.457C115.336 26.3125 115.062 26.0781 114.855 25.7539C114.652 25.4258 114.551 25.041 114.551 24.5996C114.551 24.1309 114.65 23.7324 114.85 23.4043C115.049 23.0723 115.34 22.8203 115.723 22.6484C116.105 22.4727 116.568 22.3848 117.111 22.3848C117.229 22.3848 117.355 22.3926 117.492 22.4082C117.633 22.4199 117.762 22.4355 117.879 22.4551C118 22.4707 118.092 22.4883 118.154 22.5078H120.398V23.2754L119.297 23.4805C119.402 23.6289 119.486 23.7988 119.549 23.9902C119.611 24.1777 119.643 24.3828 119.643 24.6055C119.643 25.2773 119.41 25.8066 118.945 26.1934C118.484 26.5762 117.848 26.7676 117.035 26.7676C116.84 26.7598 116.65 26.7441 116.467 26.7207C116.326 26.8066 116.219 26.9023 116.145 27.0078C116.07 27.1094 116.033 27.2246 116.033 27.3535C116.033 27.459 116.07 27.5449 116.145 27.6113C116.219 27.6738 116.328 27.7207 116.473 27.752C116.621 27.7832 116.801 27.7988 117.012 27.7988H118.131C118.842 27.7988 119.385 27.9492 119.76 28.25C120.135 28.5508 120.322 28.9922 120.322 29.5742C120.322 30.3125 120.018 30.8809 119.408 31.2793C118.799 31.6816 117.922 31.8828 116.777 31.8828ZM116.83 30.916C117.311 30.916 117.715 30.8691 118.043 30.7754C118.371 30.6816 118.619 30.5469 118.787 30.3711C118.955 30.1992 119.039 29.9941 119.039 29.7559C119.039 29.5449 118.986 29.3828 118.881 29.2695C118.775 29.1562 118.617 29.0781 118.406 29.0352C118.195 28.9922 117.934 28.9707 117.621 28.9707H116.602C116.348 28.9707 116.123 29.0098 115.928 29.0879C115.732 29.1699 115.58 29.2871 115.471 29.4395C115.365 29.5918 115.312 29.7754 115.312 29.9902C115.312 30.2871 115.443 30.5156 115.705 30.6758C115.971 30.8359 116.346 30.916 116.83 30.916ZM117.1 25.8652C117.502 25.8652 117.801 25.7559 117.996 25.5371C118.191 25.3145 118.289 25.002 118.289 24.5996C118.289 24.1621 118.188 23.834 117.984 23.6152C117.785 23.3965 117.488 23.2871 117.094 23.2871C116.707 23.2871 116.412 23.3984 116.209 23.6211C116.01 23.8438 115.91 24.1738 115.91 24.6113C115.91 25.0059 116.01 25.3145 116.209 25.5371C116.412 25.7559 116.709 25.8652 117.1 25.8652Z" fill="#636363"/>
</svg>
