<svg width="184" height="49" viewBox="0 0 184 49" fill="none" xmlns="http://www.w3.org/2000/svg">
<rect width="184" height="49" fill="#FC8019" fill-opacity="0.1"/>
<path fill-rule="evenodd" clip-rule="evenodd" d="M51.9113 13.5423C51.8584 13.5619 51.7591 13.6436 51.6905 13.7239C51.4492 14.0069 51.436 14.389 51.6572 14.6913C51.8408 14.9421 51.7588 14.9296 53.3254 14.9475L54.7257 14.9636L54.9973 16.0573C55.725 18.9878 56.1195 20.5819 56.3546 21.5419C56.4521 21.94 56.5447 22.3164 56.5604 22.3783C56.576 22.4402 56.997 24.1338 57.4959 26.1419C57.9948 28.15 58.4296 29.8991 58.4621 30.029C58.5396 30.3385 58.6424 30.5009 58.8229 30.5992L58.9656 30.6769L64.9088 30.6772C69.2793 30.6775 70.8767 30.6679 70.9455 30.6409C71.445 30.4453 71.515 29.649 71.0602 29.3363L70.929 29.2461L65.2388 29.23L59.5486 29.2139L59.4455 28.7957C59.3887 28.5657 59.2792 28.1228 59.2021 27.8115C59.125 27.5001 59.0619 27.2359 59.0619 27.2244C59.0619 27.2129 61.6244 27.2034 64.7563 27.2034C68.8191 27.2034 70.4854 27.1933 70.5714 27.1679C70.6377 27.1484 70.7439 27.0804 70.8073 27.0169C71.0138 26.8103 71.0759 26.5155 70.9794 26.2007L70.9334 26.0504L71.8847 22.7587C72.4079 20.9483 72.894 19.2686 72.9648 19.0259C73.0593 18.702 73.1075 18.5796 73.1459 18.5653C73.3094 18.5046 73.4998 18.168 73.5 17.9391C73.5003 17.6546 73.3484 17.3761 73.1291 17.2593C73.0235 17.203 72.6915 17.2007 64.7942 17.2L56.5693 17.1993L56.1651 15.5668C55.7181 13.7619 55.711 13.7417 55.4624 13.5898L55.3153 13.5L53.6615 13.5033C52.5338 13.5055 51.977 13.5179 51.9113 13.5423ZM60.1804 19.9818C60.2597 20.7072 60.325 21.3332 60.3257 21.373L60.3269 21.4454H58.981C58.2407 21.4454 57.6287 21.4334 57.6209 21.4188C57.6012 21.3814 56.9442 18.7236 56.9442 18.6811C56.9442 18.6565 57.3955 18.6487 58.4903 18.6546L60.0364 18.6629L60.1804 19.9818ZM63.7372 20.0465V21.4462L62.6587 21.4378L61.5802 21.4293L61.4362 20.1105C61.357 19.3851 61.2916 18.759 61.2909 18.7192L61.2895 18.6468H62.5134H63.7372V20.0465ZM67.4408 18.7675C67.432 18.8338 67.3687 19.4092 67.3002 20.0461C67.2317 20.683 67.1682 21.2586 67.1591 21.3252L67.1425 21.4462L66.0655 21.4378L64.9885 21.4293L64.9814 20.0381L64.9742 18.6468H66.2156H67.457L67.4408 18.7675ZM71.7305 18.7675C71.7132 18.8339 71.5321 19.4636 71.3282 20.1668L70.9573 21.4454H69.6699H68.3825L68.3978 21.3409C68.4138 21.2316 68.6876 18.7068 68.6876 18.6687C68.6876 18.6567 69.3793 18.6468 70.2248 18.6468H71.762L71.7305 18.7675ZM60.503 22.9814C60.5258 23.1125 60.7945 25.6067 60.7945 25.6874V25.7567L59.7439 25.7482L58.6934 25.7398L58.6187 25.4503C58.4842 24.9284 57.9893 22.9331 57.9893 22.9128C57.9893 22.9019 58.5514 22.893 59.2384 22.893H60.4876L60.503 22.9814ZM63.7372 24.3244V25.7559H62.8975C62.2502 25.7559 62.0552 25.7467 62.0464 25.7157C62.0402 25.6936 61.9723 25.082 61.8956 24.3566C61.8189 23.6312 61.75 23.0052 61.7423 22.9653L61.7285 22.893H62.7329H63.7372V24.3244ZM66.9824 22.9309C66.9824 22.9753 66.7153 25.457 66.6912 25.6357L66.6749 25.7568L65.8317 25.7483L64.9885 25.7398L64.9814 24.3164L64.9742 22.893H65.9783C66.7314 22.893 66.9824 22.9025 66.9824 22.9309ZM70.515 22.9653C70.4651 23.1558 69.756 25.6202 69.7328 25.6835L69.7063 25.7559H68.8273C68.3438 25.7559 67.9429 25.7451 67.9363 25.7318C67.9297 25.7185 67.9903 25.1069 68.071 24.3727C68.1517 23.6385 68.2182 23.0052 68.2189 22.9653L68.22 22.893H69.377H70.5339L70.515 22.9653ZM60.8165 31.6602C60.2682 31.8157 59.7688 32.387 59.6025 33.0488C59.4459 33.6726 59.582 34.3495 59.9601 34.8272C60.2294 35.1674 60.5098 35.3564 60.8938 35.4563C61.6118 35.6431 62.3444 35.2081 62.6769 34.3974C62.8136 34.0641 62.8573 33.8575 62.8567 33.5469C62.8557 32.9948 62.6225 32.4218 62.2559 32.0708C61.8591 31.6909 61.2853 31.5273 60.8165 31.6602ZM68.2378 31.6614C67.9667 31.7381 67.7058 31.9187 67.4775 32.1877C67.2536 32.4514 67.1334 32.6846 67.0371 33.0419C66.9542 33.3497 66.9527 33.8237 67.0337 34.1195C67.2936 35.0684 68.1992 35.6781 69.0148 35.4533C69.5294 35.3113 69.9836 34.8265 70.1888 34.1999C70.286 33.903 70.3105 33.4296 70.2444 33.1221C70.0899 32.4021 69.6248 31.8605 69.0008 31.6739C68.7549 31.6003 68.47 31.5956 68.2378 31.6614Z" fill="#FC8019"/>
<path d="M82.625 20.4336H85.1738C86.2793 20.4336 87.1133 20.5938 87.6758 20.9141C88.2383 21.2344 88.5195 21.7871 88.5195 22.5723C88.5195 22.9004 88.4609 23.1973 88.3438 23.4629C88.2305 23.7246 88.0645 23.9414 87.8457 24.1133C87.627 24.2812 87.3574 24.3945 87.0371 24.4531V24.5117C87.3691 24.5703 87.6641 24.6738 87.9219 24.8223C88.1836 24.9707 88.3887 25.1836 88.5371 25.4609C88.6895 25.7383 88.7656 26.0977 88.7656 26.5391C88.7656 27.0625 88.6406 27.5078 88.3906 27.875C88.1445 28.2422 87.791 28.5215 87.3301 28.7129C86.873 28.9043 86.3301 29 85.7012 29H82.625V20.4336ZM84.0312 23.9668H85.3789C86.0156 23.9668 86.457 23.8633 86.7031 23.6562C86.9492 23.4492 87.0723 23.1465 87.0723 22.748C87.0723 22.3418 86.9258 22.0488 86.6328 21.8691C86.3438 21.6895 85.8828 21.5996 85.25 21.5996H84.0312V23.9668ZM84.0312 25.1035V27.8223H85.5137C86.1699 27.8223 86.6309 27.6953 86.8965 27.4414C87.1621 27.1875 87.2949 26.8438 87.2949 26.4102C87.2949 26.1445 87.2344 25.9141 87.1133 25.7188C86.9961 25.5234 86.8027 25.373 86.5332 25.2676C86.2637 25.1582 85.9004 25.1035 85.4434 25.1035H84.0312ZM96.0488 22.5137V29H94.9648L94.7773 28.127H94.7012C94.5645 28.3496 94.3906 28.5352 94.1797 28.6836C93.9688 28.8281 93.7344 28.9355 93.4766 29.0059C93.2188 29.0801 92.9473 29.1172 92.6621 29.1172C92.1738 29.1172 91.7559 29.0352 91.4082 28.8711C91.0645 28.7031 90.8008 28.4453 90.6172 28.0977C90.4336 27.75 90.3418 27.3008 90.3418 26.75V22.5137H91.7246V26.4922C91.7246 26.9961 91.8262 27.373 92.0293 27.623C92.2363 27.873 92.5566 27.998 92.9902 27.998C93.4082 27.998 93.7402 27.9121 93.9863 27.7402C94.2324 27.5684 94.4062 27.3145 94.5078 26.9785C94.6133 26.6426 94.666 26.2305 94.666 25.7422V22.5137H96.0488ZM97.0449 22.5137H98.5449L99.875 26.2168C99.9336 26.3848 99.9863 26.5508 100.033 26.7148C100.084 26.875 100.127 27.0332 100.162 27.1895C100.201 27.3457 100.232 27.502 100.256 27.6582H100.291C100.33 27.4551 100.385 27.2285 100.455 26.9785C100.529 26.7246 100.611 26.4707 100.701 26.2168L101.979 22.5137H103.461L100.678 29.8906C100.518 30.3125 100.32 30.6719 100.086 30.9688C99.8555 31.2695 99.582 31.4961 99.2656 31.6484C98.9492 31.8047 98.5879 31.8828 98.1816 31.8828C97.9863 31.8828 97.8164 31.8711 97.6719 31.8477C97.5273 31.8281 97.4043 31.8066 97.3027 31.7832V30.6816C97.3848 30.7012 97.4883 30.7188 97.6133 30.7344C97.7383 30.75 97.8672 30.7578 98 30.7578C98.2461 30.7578 98.459 30.709 98.6387 30.6113C98.8184 30.5137 98.9707 30.375 99.0957 30.1953C99.2207 30.0195 99.3242 29.8184 99.4062 29.5918L99.6348 28.9824L97.0449 22.5137ZM105.822 22.5137V29H104.445V22.5137H105.822ZM105.143 20.0293C105.354 20.0293 105.535 20.0859 105.688 20.1992C105.844 20.3125 105.922 20.5078 105.922 20.7852C105.922 21.0586 105.844 21.2539 105.688 21.3711C105.535 21.4844 105.354 21.541 105.143 21.541C104.924 21.541 104.738 21.4844 104.586 21.3711C104.438 21.2539 104.363 21.0586 104.363 20.7852C104.363 20.5078 104.438 20.3125 104.586 20.1992C104.738 20.0859 104.924 20.0293 105.143 20.0293ZM111.178 22.3906C111.908 22.3906 112.477 22.5801 112.883 22.959C113.293 23.334 113.498 23.9375 113.498 24.7695V29H112.121V25.0273C112.121 24.5234 112.018 24.1465 111.811 23.8965C111.604 23.6426 111.283 23.5156 110.85 23.5156C110.221 23.5156 109.783 23.709 109.537 24.0957C109.295 24.4824 109.174 25.043 109.174 25.7773V29H107.797V22.5137H108.869L109.062 23.3926H109.139C109.279 23.166 109.453 22.9805 109.66 22.8359C109.871 22.6875 110.105 22.5762 110.363 22.502C110.625 22.4277 110.896 22.3906 111.178 22.3906ZM117.277 31.8828C116.398 31.8828 115.725 31.7246 115.256 31.4082C114.787 31.0918 114.553 30.6484 114.553 30.0781C114.553 29.6797 114.678 29.3418 114.928 29.0645C115.178 28.791 115.535 28.6016 116 28.4961C115.824 28.418 115.672 28.2969 115.543 28.1328C115.418 27.9648 115.355 27.7793 115.355 27.5762C115.355 27.334 115.424 27.127 115.561 26.9551C115.697 26.7832 115.902 26.6172 116.176 26.457C115.836 26.3125 115.562 26.0781 115.355 25.7539C115.152 25.4258 115.051 25.041 115.051 24.5996C115.051 24.1309 115.15 23.7324 115.35 23.4043C115.549 23.0723 115.84 22.8203 116.223 22.6484C116.605 22.4727 117.068 22.3848 117.611 22.3848C117.729 22.3848 117.855 22.3926 117.992 22.4082C118.133 22.4199 118.262 22.4355 118.379 22.4551C118.5 22.4707 118.592 22.4883 118.654 22.5078H120.898V23.2754L119.797 23.4805C119.902 23.6289 119.986 23.7988 120.049 23.9902C120.111 24.1777 120.143 24.3828 120.143 24.6055C120.143 25.2773 119.91 25.8066 119.445 26.1934C118.984 26.5762 118.348 26.7676 117.535 26.7676C117.34 26.7598 117.15 26.7441 116.967 26.7207C116.826 26.8066 116.719 26.9023 116.645 27.0078C116.57 27.1094 116.533 27.2246 116.533 27.3535C116.533 27.459 116.57 27.5449 116.645 27.6113C116.719 27.6738 116.828 27.7207 116.973 27.752C117.121 27.7832 117.301 27.7988 117.512 27.7988H118.631C119.342 27.7988 119.885 27.9492 120.26 28.25C120.635 28.5508 120.822 28.9922 120.822 29.5742C120.822 30.3125 120.518 30.8809 119.908 31.2793C119.299 31.6816 118.422 31.8828 117.277 31.8828ZM117.33 30.916C117.811 30.916 118.215 30.8691 118.543 30.7754C118.871 30.6816 119.119 30.5469 119.287 30.3711C119.455 30.1992 119.539 29.9941 119.539 29.7559C119.539 29.5449 119.486 29.3828 119.381 29.2695C119.275 29.1562 119.117 29.0781 118.906 29.0352C118.695 28.9922 118.434 28.9707 118.121 28.9707H117.102C116.848 28.9707 116.623 29.0098 116.428 29.0879C116.232 29.1699 116.08 29.2871 115.971 29.4395C115.865 29.5918 115.812 29.7754 115.812 29.9902C115.812 30.2871 115.943 30.5156 116.205 30.6758C116.471 30.8359 116.846 30.916 117.33 30.916ZM117.6 25.8652C118.002 25.8652 118.301 25.7559 118.496 25.5371C118.691 25.3145 118.789 25.002 118.789 24.5996C118.789 24.1621 118.688 23.834 118.484 23.6152C118.285 23.3965 117.988 23.2871 117.594 23.2871C117.207 23.2871 116.912 23.3984 116.709 23.6211C116.51 23.8438 116.41 24.1738 116.41 24.6113C116.41 25.0059 116.51 25.3145 116.709 25.5371C116.912 25.7559 117.209 25.8652 117.6 25.8652Z" fill="#FC8019"/>
</svg>
