<svg width="30" height="19" viewBox="0 0 30 19" fill="none" xmlns="http://www.w3.org/2000/svg">
<path fill-rule="evenodd" clip-rule="evenodd" d="M16.2328 7.10288C16.8698 7.14649 17.0442 7.49825 17.2307 7.99231C17.4407 8.47375 17.7305 8.93052 18.096 9.36261C20.124 11.7601 26.6495 14.7055 28.876 16.9859C29.4171 17.4679 29.5944 18.949 29.0452 18.9995C28.8909 19.0132 28.6533 18.8181 28.3848 18.5381H0.994842C0.726291 18.8181 0.488726 19.0132 0.334367 18.9995C-0.214786 18.949 -0.0374736 17.4679 0.503646 16.9859C2.7301 14.7055 9.25566 11.7601 11.2836 9.36261C11.6491 8.93052 11.9389 8.47375 12.1489 7.99231C12.3354 7.49825 12.5098 7.14649 13.1468 7.10288H16.2328ZM27.7754 17.8507C27.4644 17.4874 27.1579 17.1305 26.9204 16.936C25.9076 16.1085 24.714 15.3798 23.583 14.6895L19.5461 12.3356L15.2051 9.87791H14.1745L9.83351 12.3356L5.79663 14.6895C4.66562 15.3798 3.47206 16.1085 2.45925 16.936C2.22169 17.1305 1.91526 17.4874 1.60425 17.8507H27.7754ZM13.9387 5.57133H15.4409C15.5419 5.57133 15.6246 5.65454 15.6246 5.75496V6.55086C15.6246 6.6507 15.5414 6.73391 15.4409 6.73391H13.9387C13.8382 6.73391 13.755 6.65185 13.755 6.55086V5.75496C13.755 5.65397 13.8377 5.57133 13.9387 5.57133ZM13.071 2.075C13.0269 2.17944 12.9432 2.26212 12.8382 2.30493C12.7332 2.34774 12.6156 2.34718 12.511 2.30339C12.2929 2.21158 12.1908 1.96081 12.2826 1.74333C12.5052 1.21254 12.7864 0.818896 13.0928 0.542311C13.4119 0.254824 13.7619 0.0901353 14.1079 0.0281619C14.462 -0.0349591 14.8103 0.0103733 15.1208 0.140632L15.1586 0.158421C15.3933 0.263431 15.6039 0.416643 15.7761 0.607728C15.8759 0.71905 15.9614 0.841849 16.032 0.972682C16.2948 1.46158 16.3137 2.02393 16.1663 2.54956C16.0251 3.05281 15.7284 3.52794 15.3503 3.86879C15.2774 3.93421 15.2011 3.9956 15.1213 4.05127V5.00669H14.2629V3.8137C14.264 3.66106 14.3455 3.51359 14.489 3.4367C14.5882 3.38333 14.6852 3.31332 14.7765 3.23127C15.0381 2.99542 15.2436 2.66662 15.3411 2.31831C15.4323 1.99295 15.4266 1.65611 15.278 1.37838C15.243 1.31181 15.1965 1.24582 15.1385 1.18156C15.0467 1.07884 14.936 0.997357 14.816 0.942269L14.7891 0.93194C14.6261 0.863655 14.4425 0.840128 14.256 0.87341C14.0615 0.907839 13.8595 1.00596 13.6667 1.17983C13.4463 1.37838 13.2403 1.67046 13.071 2.075Z" fill="#FC8019"/>
</svg>
