<svg width="41" height="17" viewBox="0 0 41 17" fill="none" xmlns="http://www.w3.org/2000/svg">
<path d="M1.77368 15.4868C1.55884 15.4868 1.37134 15.4731 1.21118 15.4458C1.04712 15.4224 0.906494 15.3892 0.789307 15.3462V14.1685C0.914307 14.1997 1.04907 14.2271 1.1936 14.2505C1.33813 14.2739 1.49243 14.2856 1.65649 14.2856C1.87134 14.2856 2.06665 14.2446 2.24243 14.1626C2.41821 14.0806 2.55688 13.9321 2.65845 13.7173C2.76392 13.5024 2.81665 13.1997 2.81665 12.8091V4.53564H4.2229V12.7622C4.2229 13.3989 4.12134 13.9165 3.91821 14.3149C3.71509 14.7173 3.42993 15.0122 3.06274 15.1997C2.69556 15.3911 2.26587 15.4868 1.77368 15.4868ZM6.2479 12.3755C6.2479 12.0552 6.32993 11.8306 6.49399 11.7017C6.66196 11.5688 6.86509 11.5024 7.10337 11.5024C7.34165 11.5024 7.54478 11.5688 7.71274 11.7017C7.88462 11.8306 7.97056 12.0552 7.97056 12.3755C7.97056 12.688 7.88462 12.9146 7.71274 13.0552C7.54478 13.1919 7.34165 13.2603 7.10337 13.2603C6.86509 13.2603 6.66196 13.1919 6.49399 13.0552C6.32993 12.9146 6.2479 12.688 6.2479 12.3755ZM9.69087 12.3755C9.69087 12.0552 9.7729 11.8306 9.93696 11.7017C10.1049 11.5688 10.3081 11.5024 10.5463 11.5024C10.7846 11.5024 10.9877 11.5688 11.1557 11.7017C11.3276 11.8306 11.4135 12.0552 11.4135 12.3755C11.4135 12.688 11.3276 12.9146 11.1557 13.0552C10.9877 13.1919 10.7846 13.2603 10.5463 13.2603C10.3081 13.2603 10.1049 13.1919 9.93696 13.0552C9.7729 12.9146 9.69087 12.688 9.69087 12.3755ZM13.1338 12.3755C13.1338 12.0552 13.2159 11.8306 13.3799 11.7017C13.5479 11.5688 13.751 11.5024 13.9893 11.5024C14.2276 11.5024 14.4307 11.5688 14.5987 11.7017C14.7706 11.8306 14.8565 12.0552 14.8565 12.3755C14.8565 12.688 14.7706 12.9146 14.5987 13.0552C14.4307 13.1919 14.2276 13.2603 13.9893 13.2603C13.751 13.2603 13.5479 13.1919 13.3799 13.0552C13.2159 12.9146 13.1338 12.688 13.1338 12.3755ZM16.5768 12.3755C16.5768 12.0552 16.6588 11.8306 16.8229 11.7017C16.9909 11.5688 17.194 11.5024 17.4323 11.5024C17.6706 11.5024 17.8737 11.5688 18.0417 11.7017C18.2135 11.8306 18.2995 12.0552 18.2995 12.3755C18.2995 12.688 18.2135 12.9146 18.0417 13.0552C17.8737 13.1919 17.6706 13.2603 17.4323 13.2603C17.194 13.2603 16.9909 13.1919 16.8229 13.0552C16.6588 12.9146 16.5768 12.688 16.5768 12.3755ZM20.0198 12.3755C20.0198 12.0552 20.1018 11.8306 20.2659 11.7017C20.4338 11.5688 20.637 11.5024 20.8752 11.5024C21.1135 11.5024 21.3167 11.5688 21.4846 11.7017C21.6565 11.8306 21.7424 12.0552 21.7424 12.3755C21.7424 12.688 21.6565 12.9146 21.4846 13.0552C21.3167 13.1919 21.1135 13.2603 20.8752 13.2603C20.637 13.2603 20.4338 13.1919 20.2659 13.0552C20.1018 12.9146 20.0198 12.688 20.0198 12.3755Z" fill="#4A4A4A"/>
<path d="M39.4549 6.30972C39.359 6.27545 39.2714 6.22143 39.1978 6.15116C39.1241 6.08089 39.066 5.99595 39.0272 5.90181C38.9884 5.80767 38.9699 5.70645 38.9727 5.60468C38.9755 5.50292 38.9997 5.40288 39.0436 5.31104C39.2123 4.95625 39.2669 4.55798 39.2001 4.17088C39.1333 3.78379 38.9484 3.42685 38.6706 3.14906C38.3928 2.87127 38.0359 2.68624 37.6487 2.61937C37.2616 2.5525 36.8632 2.60706 36.5083 2.77558C36.4165 2.81942 36.3164 2.84351 36.2147 2.84629C36.1129 2.84907 36.0117 2.83049 35.9176 2.79174C35.8235 2.75299 35.7385 2.69493 35.6682 2.62131C35.5979 2.5477 35.5438 2.46016 35.5095 2.36436C35.3774 1.99489 35.1343 1.67529 34.8135 1.44932C34.4927 1.22334 34.1099 1.10205 33.7174 1.10205C33.325 1.10205 32.9422 1.22334 32.6214 1.44932C32.3006 1.67529 32.0575 1.99489 31.9254 2.36436C31.8911 2.46022 31.8371 2.54782 31.7668 2.62148C31.6965 2.69515 31.6116 2.75324 31.5174 2.79201C31.4233 2.83077 31.322 2.84934 31.2202 2.8465C31.1185 2.84367 31.0184 2.81951 30.9266 2.77558C30.5715 2.60573 30.1725 2.55014 29.7845 2.61647C29.3965 2.68279 29.0386 2.86778 28.7602 3.14593C28.4817 3.42409 28.2964 3.78173 28.2297 4.16959C28.163 4.55746 28.2182 4.95646 28.3877 5.31163C28.4318 5.40345 28.456 5.5035 28.4589 5.60529C28.4618 5.70708 28.4432 5.80834 28.4044 5.90251C28.3657 5.99667 28.3075 6.08163 28.2338 6.15188C28.1601 6.22214 28.0724 6.27611 27.9764 6.31031C27.6072 6.44264 27.2878 6.68579 27.062 7.00651C26.8363 7.32723 26.7151 7.70985 26.7151 8.10205C26.7151 8.49425 26.8363 8.87687 27.062 9.19759C27.2878 9.51831 27.6072 9.76146 27.9764 9.8938C28.0726 9.92776 28.1605 9.98156 28.2345 10.0517C28.3085 10.1218 28.3669 10.2067 28.406 10.3009C28.445 10.3951 28.4639 10.4964 28.4612 10.5983C28.4586 10.7002 28.4346 10.8004 28.3907 10.8925C28.2219 11.247 28.1671 11.6451 28.2337 12.0321C28.3002 12.4191 28.4849 12.776 28.7624 13.0538C29.0399 13.3317 29.3966 13.5168 29.7836 13.5839C30.1705 13.651 30.5688 13.5967 30.9236 13.4285C31.0155 13.3846 31.1155 13.3604 31.2173 13.3576C31.3191 13.3548 31.4203 13.3733 31.5145 13.4121C31.6086 13.4509 31.6936 13.509 31.7639 13.5826C31.8342 13.6563 31.8882 13.7439 31.9225 13.8397C32.0546 14.2092 32.2976 14.5288 32.6185 14.7548C32.9393 14.9808 33.3221 15.1021 33.7145 15.1021C34.1069 15.1021 34.4898 14.9808 34.8106 14.7548C35.1314 14.5288 35.3745 14.2092 35.5066 13.8397C35.5408 13.7439 35.5949 13.6563 35.6651 13.5826C35.7354 13.509 35.8204 13.4509 35.9145 13.4121C36.0087 13.3733 36.1099 13.3548 36.2117 13.3576C36.3135 13.3604 36.4135 13.3846 36.5054 13.4285C36.8602 13.5971 37.2586 13.6518 37.6457 13.585C38.0329 13.5182 38.3899 13.3333 38.6677 13.0555C38.9456 12.7778 39.1306 12.4209 39.1975 12.0338C39.2644 11.6468 39.2098 11.2485 39.0413 10.8936C38.9974 10.8018 38.9733 10.7018 38.9706 10.6C38.9678 10.4983 38.9864 10.3971 39.0251 10.303C39.0639 10.2089 39.1219 10.1239 39.1956 10.0537C39.2692 9.98338 39.3568 9.92932 39.4526 9.89497C39.8221 9.7629 40.1418 9.51985 40.3678 9.1991C40.5938 8.87835 40.7151 8.49558 40.7151 8.10323C40.7151 7.71087 40.5938 7.3281 40.3678 7.00735C40.1418 6.6866 39.8221 6.44355 39.4526 6.31148L39.4549 6.30972Z" fill="#1C92EC"/>
<path d="M36.1873 6.11364L32.868 9.43212C32.8457 9.45452 32.8192 9.4723 32.79 9.48442C32.7608 9.49655 32.7295 9.5028 32.6978 9.5028C32.6662 9.5028 32.6349 9.49655 32.6057 9.48442C32.5765 9.4723 32.55 9.45452 32.5277 9.43212L31.2441 8.14753C31.2217 8.12512 31.1952 8.10735 31.166 8.09522C31.1368 8.08309 31.1055 8.07685 31.0739 8.07685C31.0423 8.07685 31.0109 8.08309 30.9817 8.09522C30.9525 8.10735 30.926 8.12512 30.9037 8.14753C30.8813 8.16984 30.8635 8.19636 30.8514 8.22555C30.8393 8.25475 30.833 8.28606 30.833 8.31768C30.833 8.34929 30.8393 8.3806 30.8514 8.4098C30.8635 8.439 30.8813 8.46551 30.9037 8.48783L32.1878 9.77146C32.3232 9.90665 32.5068 9.98257 32.6982 9.98257C32.8896 9.98257 33.0732 9.90665 33.2086 9.77146L36.5276 6.45371C36.55 6.4314 36.5678 6.4049 36.5799 6.37572C36.592 6.34654 36.5982 6.31526 36.5982 6.28367C36.5982 6.25209 36.592 6.22081 36.5799 6.19163C36.5678 6.16245 36.55 6.13595 36.5276 6.11364C36.5053 6.09124 36.4788 6.07347 36.4496 6.06134C36.4204 6.04921 36.3891 6.04297 36.3575 6.04297C36.3258 6.04297 36.2945 6.04921 36.2653 6.06134C36.2361 6.07347 36.2096 6.09124 36.1873 6.11364Z" fill="white" stroke="white"/>
</svg>
