<svg width="176" height="49" viewBox="0 0 176 49" fill="none" xmlns="http://www.w3.org/2000/svg">
<circle cx="32.5" cy="24.5" r="10" fill="#636363" fill-opacity="0.15"/>
<path d="M32.625 20.552V29.4478" stroke="#636363" stroke-width="1.27083" stroke-linecap="round" stroke-linejoin="round"/>
<path d="M28.177 25H37.0728" stroke="#636363" stroke-width="1.27083" stroke-linecap="round" stroke-linejoin="round"/>
<path d="M52.1152 20.4336C53.2207 20.4336 54.0273 20.6602 54.5352 21.1133C55.043 21.5664 55.2969 22.2012 55.2969 23.0176C55.2969 23.3887 55.2383 23.7422 55.1211 24.0781C55.0078 24.4102 54.8203 24.7051 54.5586 24.9629C54.2969 25.2168 53.9512 25.418 53.5215 25.5664C53.0957 25.7148 52.5703 25.7891 51.9453 25.7891H51.0312V29H49.625V20.4336H52.1152ZM52.0215 21.5996H51.0312V24.6172H51.7988C52.2402 24.6172 52.6152 24.5664 52.9238 24.4648C53.2324 24.3594 53.4668 24.1934 53.627 23.9668C53.7871 23.7402 53.8672 23.4414 53.8672 23.0703C53.8672 22.5742 53.7168 22.2051 53.416 21.9629C53.1191 21.7207 52.6543 21.5996 52.0215 21.5996ZM62.6094 25.7422C62.6094 26.2812 62.5391 26.7598 62.3984 27.1777C62.2578 27.5957 62.0527 27.9492 61.7832 28.2383C61.5137 28.5234 61.1895 28.7422 60.8105 28.8945C60.4316 29.043 60.0039 29.1172 59.5273 29.1172C59.082 29.1172 58.6738 29.043 58.3027 28.8945C57.9316 28.7422 57.6094 28.5234 57.3359 28.2383C57.0664 27.9492 56.8574 27.5957 56.709 27.1777C56.5605 26.7598 56.4863 26.2812 56.4863 25.7422C56.4863 25.0273 56.6094 24.4219 56.8555 23.9258C57.1055 23.4258 57.4609 23.0449 57.9219 22.7832C58.3828 22.5215 58.9316 22.3906 59.5684 22.3906C60.166 22.3906 60.6934 22.5215 61.1504 22.7832C61.6074 23.0449 61.9648 23.4258 62.2227 23.9258C62.4805 24.4258 62.6094 25.0312 62.6094 25.7422ZM57.9043 25.7422C57.9043 26.2148 57.9609 26.6191 58.0742 26.9551C58.1914 27.291 58.3711 27.5488 58.6133 27.7285C58.8555 27.9043 59.168 27.9922 59.5508 27.9922C59.9336 27.9922 60.2461 27.9043 60.4883 27.7285C60.7305 27.5488 60.9082 27.291 61.0215 26.9551C61.1348 26.6191 61.1914 26.2148 61.1914 25.7422C61.1914 25.2695 61.1348 24.8691 61.0215 24.541C60.9082 24.209 60.7305 23.957 60.4883 23.7852C60.2461 23.6094 59.9316 23.5215 59.5449 23.5215C58.9746 23.5215 58.5586 23.7129 58.2969 24.0957C58.0352 24.4785 57.9043 25.0273 57.9043 25.7422ZM68.5508 27.1484C68.5508 27.5742 68.4473 27.9336 68.2402 28.2266C68.0332 28.5195 67.7305 28.7422 67.332 28.8945C66.9375 29.043 66.4531 29.1172 65.8789 29.1172C65.4258 29.1172 65.0352 29.084 64.707 29.0176C64.3828 28.9551 64.0762 28.8574 63.7871 28.7246V27.5352C64.0957 27.6797 64.4414 27.8047 64.8242 27.9102C65.2109 28.0156 65.5762 28.0684 65.9199 28.0684C66.373 28.0684 66.6992 27.998 66.8984 27.8574C67.0977 27.7129 67.1973 27.5215 67.1973 27.2832C67.1973 27.1426 67.1562 27.0176 67.0742 26.9082C66.9961 26.7949 66.8477 26.6797 66.6289 26.5625C66.4141 26.4414 66.0977 26.2969 65.6797 26.1289C65.2695 25.9648 64.9238 25.8008 64.6426 25.6367C64.3613 25.4727 64.1484 25.2754 64.0039 25.0449C63.8594 24.8105 63.7871 24.5117 63.7871 24.1484C63.7871 23.5742 64.0137 23.1387 64.4668 22.8418C64.9238 22.541 65.5273 22.3906 66.2773 22.3906C66.6758 22.3906 67.0508 22.4316 67.4023 22.5137C67.7578 22.5918 68.1055 22.707 68.4453 22.8594L68.0117 23.8965C67.7188 23.7676 67.4238 23.6621 67.127 23.5801C66.834 23.4941 66.5352 23.4512 66.2305 23.4512C65.875 23.4512 65.6035 23.5059 65.416 23.6152C65.2324 23.7246 65.1406 23.8809 65.1406 24.084C65.1406 24.2363 65.1855 24.3652 65.2754 24.4707C65.3652 24.5762 65.5195 24.6816 65.7383 24.7871C65.9609 24.8926 66.2695 25.0234 66.6641 25.1797C67.0508 25.3281 67.3848 25.4844 67.666 25.6484C67.9512 25.8086 68.1699 26.0059 68.3223 26.2402C68.4746 26.4746 68.5508 26.7773 68.5508 27.1484ZM72.4531 28.0039C72.6328 28.0039 72.8105 27.9883 72.9863 27.957C73.1621 27.9219 73.3223 27.8809 73.4668 27.834V28.877C73.3145 28.9434 73.1172 29 72.875 29.0469C72.6328 29.0938 72.3809 29.1172 72.1191 29.1172C71.752 29.1172 71.4219 29.0566 71.1289 28.9355C70.8359 28.8105 70.6035 28.5977 70.4316 28.2969C70.2598 27.9961 70.1738 27.5801 70.1738 27.0488V23.5625H69.2891V22.9473L70.2383 22.4609L70.6895 21.0723H71.5566V22.5137H73.4141V23.5625H71.5566V27.0312C71.5566 27.3594 71.6387 27.6035 71.8027 27.7637C71.9668 27.9238 72.1836 28.0039 72.4531 28.0039ZM80.4512 20.4336C81.1895 20.4336 81.7988 20.5234 82.2793 20.7031C82.7637 20.8828 83.123 21.1562 83.3574 21.5234C83.5957 21.8906 83.7148 22.3574 83.7148 22.9238C83.7148 23.3457 83.6367 23.7051 83.4805 24.002C83.3242 24.2988 83.1191 24.5449 82.8652 24.7402C82.6113 24.9355 82.3398 25.0918 82.0508 25.209L84.4824 29H82.8945L80.8262 25.5664H79.4492V29H78.043V20.4336H80.4512ZM80.3574 21.6055H79.4492V24.4062H80.4219C81.0742 24.4062 81.5469 24.2852 81.8398 24.043C82.1367 23.8008 82.2852 23.4434 82.2852 22.9707C82.2852 22.4746 82.127 22.123 81.8105 21.916C81.498 21.709 81.0137 21.6055 80.3574 21.6055ZM88.1504 22.3906C88.7285 22.3906 89.2246 22.5098 89.6387 22.748C90.0527 22.9863 90.3711 23.3242 90.5938 23.7617C90.8164 24.1992 90.9277 24.7227 90.9277 25.332V26.0703H86.5977C86.6133 26.6992 86.7812 27.1836 87.1016 27.5234C87.4258 27.8633 87.8789 28.0332 88.4609 28.0332C88.875 28.0332 89.2461 27.9941 89.5742 27.916C89.9062 27.834 90.248 27.7148 90.5996 27.5586V28.6777C90.2754 28.8301 89.9453 28.9414 89.6094 29.0117C89.2734 29.082 88.8711 29.1172 88.4023 29.1172C87.7656 29.1172 87.2051 28.9941 86.7207 28.748C86.2402 28.498 85.8633 28.127 85.5898 27.6348C85.3203 27.1426 85.1855 26.5312 85.1855 25.8008C85.1855 25.0742 85.3086 24.457 85.5547 23.9492C85.8008 23.4414 86.1465 23.0547 86.5918 22.7891C87.0371 22.5234 87.5566 22.3906 88.1504 22.3906ZM88.1504 23.4277C87.7168 23.4277 87.3652 23.5684 87.0957 23.8496C86.8301 24.1309 86.6738 24.543 86.627 25.0859H89.5801C89.5762 24.7617 89.5215 24.4746 89.416 24.2246C89.3145 23.9746 89.1582 23.7793 88.9473 23.6387C88.7402 23.498 88.4746 23.4277 88.1504 23.4277ZM96.5996 31.877V29.123C96.5996 28.9668 96.6035 28.7969 96.6113 28.6133C96.623 28.4297 96.6406 28.2617 96.6641 28.1094H96.5938C96.418 28.3945 96.1738 28.6348 95.8613 28.8301C95.5488 29.0215 95.1406 29.1172 94.6367 29.1172C93.875 29.1172 93.2617 28.8359 92.7969 28.2734C92.332 27.707 92.0996 26.8711 92.0996 25.7656C92.0996 25.0312 92.207 24.4141 92.4219 23.9141C92.6367 23.4141 92.9375 23.0352 93.3242 22.7773C93.7148 22.5195 94.168 22.3906 94.6836 22.3906C95.1797 22.3906 95.582 22.4883 95.8906 22.6836C96.2031 22.875 96.4531 23.1113 96.6406 23.3926H96.6875L96.8398 22.5137H97.9824V31.877H96.5996ZM95.0469 28.0098C95.4375 28.0098 95.75 27.9355 95.9844 27.7871C96.2188 27.6387 96.3887 27.4141 96.4941 27.1133C96.5996 26.8086 96.6562 26.4316 96.6641 25.9824V25.7715C96.6641 25.0371 96.5449 24.4785 96.3066 24.0957C96.0684 23.7129 95.6445 23.5215 95.0352 23.5215C94.5195 23.5215 94.1367 23.7227 93.8867 24.125C93.6367 24.5234 93.5117 25.0781 93.5117 25.7891C93.5117 26.5078 93.6367 27.0586 93.8867 27.4414C94.1406 27.8203 94.5273 28.0098 95.0469 28.0098ZM105.611 22.5137V29H104.527L104.34 28.127H104.264C104.127 28.3496 103.953 28.5352 103.742 28.6836C103.531 28.8281 103.297 28.9355 103.039 29.0059C102.781 29.0801 102.51 29.1172 102.225 29.1172C101.736 29.1172 101.318 29.0352 100.971 28.8711C100.627 28.7031 100.363 28.4453 100.18 28.0977C99.9961 27.75 99.9043 27.3008 99.9043 26.75V22.5137H101.287V26.4922C101.287 26.9961 101.389 27.373 101.592 27.623C101.799 27.873 102.119 27.998 102.553 27.998C102.971 27.998 103.303 27.9121 103.549 27.7402C103.795 27.5684 103.969 27.3145 104.07 26.9785C104.176 26.6426 104.229 26.2305 104.229 25.7422V22.5137H105.611ZM108.963 22.5137V29H107.586V22.5137H108.963ZM108.283 20.0293C108.494 20.0293 108.676 20.0859 108.828 20.1992C108.984 20.3125 109.062 20.5078 109.062 20.7852C109.062 21.0586 108.984 21.2539 108.828 21.3711C108.676 21.4844 108.494 21.541 108.283 21.541C108.064 21.541 107.879 21.4844 107.727 21.3711C107.578 21.2539 107.504 21.0586 107.504 20.7852C107.504 20.5078 107.578 20.3125 107.727 20.1992C107.879 20.0859 108.064 20.0293 108.283 20.0293ZM114.225 22.3906C114.334 22.3906 114.453 22.3965 114.582 22.4082C114.711 22.4199 114.822 22.4355 114.916 22.4551L114.787 23.7441C114.705 23.7207 114.604 23.7031 114.482 23.6914C114.365 23.6797 114.26 23.6738 114.166 23.6738C113.92 23.6738 113.686 23.7148 113.463 23.7969C113.24 23.875 113.043 23.9961 112.871 24.1602C112.699 24.3203 112.564 24.5215 112.467 24.7637C112.369 25.0059 112.32 25.2871 112.32 25.6074V29H110.938V22.5137H112.016L112.203 23.6562H112.268C112.396 23.4258 112.557 23.2148 112.748 23.0234C112.939 22.832 113.158 22.6797 113.404 22.5664C113.654 22.4492 113.928 22.3906 114.225 22.3906ZM118.701 22.3906C119.279 22.3906 119.775 22.5098 120.189 22.748C120.604 22.9863 120.922 23.3242 121.145 23.7617C121.367 24.1992 121.479 24.7227 121.479 25.332V26.0703H117.148C117.164 26.6992 117.332 27.1836 117.652 27.5234C117.977 27.8633 118.43 28.0332 119.012 28.0332C119.426 28.0332 119.797 27.9941 120.125 27.916C120.457 27.834 120.799 27.7148 121.15 27.5586V28.6777C120.826 28.8301 120.496 28.9414 120.16 29.0117C119.824 29.082 119.422 29.1172 118.953 29.1172C118.316 29.1172 117.756 28.9941 117.271 28.748C116.791 28.498 116.414 28.127 116.141 27.6348C115.871 27.1426 115.736 26.5312 115.736 25.8008C115.736 25.0742 115.859 24.457 116.105 23.9492C116.352 23.4414 116.697 23.0547 117.143 22.7891C117.588 22.5234 118.107 22.3906 118.701 22.3906ZM118.701 23.4277C118.268 23.4277 117.916 23.5684 117.646 23.8496C117.381 24.1309 117.225 24.543 117.178 25.0859H120.131C120.127 24.7617 120.072 24.4746 119.967 24.2246C119.865 23.9746 119.709 23.7793 119.498 23.6387C119.291 23.498 119.025 23.4277 118.701 23.4277ZM130.361 22.3906C131.088 22.3906 131.635 22.5781 132.002 22.9531C132.373 23.3281 132.559 23.9297 132.559 24.7578V29H131.182V25.0039C131.182 24.5117 131.086 24.1406 130.895 23.8906C130.703 23.6406 130.412 23.5156 130.021 23.5156C129.475 23.5156 129.08 23.6914 128.838 24.043C128.6 24.3906 128.48 24.8965 128.48 25.5605V29H127.104V25.0039C127.104 24.6758 127.061 24.4023 126.975 24.1836C126.893 23.9609 126.766 23.7949 126.594 23.6855C126.422 23.5723 126.205 23.5156 125.943 23.5156C125.564 23.5156 125.262 23.6016 125.035 23.7734C124.812 23.9453 124.652 24.1992 124.555 24.5352C124.457 24.8672 124.408 25.2754 124.408 25.7598V29H123.031V22.5137H124.104L124.297 23.3867H124.373C124.506 23.1602 124.67 22.9746 124.865 22.8301C125.064 22.6816 125.285 22.5723 125.527 22.502C125.77 22.4277 126.021 22.3906 126.283 22.3906C126.768 22.3906 127.176 22.4766 127.508 22.6484C127.84 22.8164 128.088 23.0742 128.252 23.4219H128.357C128.561 23.0703 128.844 22.8105 129.207 22.6426C129.57 22.4746 129.955 22.3906 130.361 22.3906ZM137.064 22.3906C137.643 22.3906 138.139 22.5098 138.553 22.748C138.967 22.9863 139.285 23.3242 139.508 23.7617C139.73 24.1992 139.842 24.7227 139.842 25.332V26.0703H135.512C135.527 26.6992 135.695 27.1836 136.016 27.5234C136.34 27.8633 136.793 28.0332 137.375 28.0332C137.789 28.0332 138.16 27.9941 138.488 27.916C138.82 27.834 139.162 27.7148 139.514 27.5586V28.6777C139.189 28.8301 138.859 28.9414 138.523 29.0117C138.188 29.082 137.785 29.1172 137.316 29.1172C136.68 29.1172 136.119 28.9941 135.635 28.748C135.154 28.498 134.777 28.127 134.504 27.6348C134.234 27.1426 134.1 26.5312 134.1 25.8008C134.1 25.0742 134.223 24.457 134.469 23.9492C134.715 23.4414 135.061 23.0547 135.506 22.7891C135.951 22.5234 136.471 22.3906 137.064 22.3906ZM137.064 23.4277C136.631 23.4277 136.279 23.5684 136.01 23.8496C135.744 24.1309 135.588 24.543 135.541 25.0859H138.494C138.49 24.7617 138.436 24.4746 138.33 24.2246C138.229 23.9746 138.072 23.7793 137.861 23.6387C137.654 23.498 137.389 23.4277 137.064 23.4277ZM144.775 22.3906C145.506 22.3906 146.074 22.5801 146.48 22.959C146.891 23.334 147.096 23.9375 147.096 24.7695V29H145.719V25.0273C145.719 24.5234 145.615 24.1465 145.408 23.8965C145.201 23.6426 144.881 23.5156 144.447 23.5156C143.818 23.5156 143.381 23.709 143.135 24.0957C142.893 24.4824 142.771 25.043 142.771 25.7773V29H141.395V22.5137H142.467L142.66 23.3926H142.736C142.877 23.166 143.051 22.9805 143.258 22.8359C143.469 22.6875 143.703 22.5762 143.961 22.502C144.223 22.4277 144.494 22.3906 144.775 22.3906ZM151.438 28.0039C151.617 28.0039 151.795 27.9883 151.971 27.957C152.146 27.9219 152.307 27.8809 152.451 27.834V28.877C152.299 28.9434 152.102 29 151.859 29.0469C151.617 29.0938 151.365 29.1172 151.104 29.1172C150.736 29.1172 150.406 29.0566 150.113 28.9355C149.82 28.8105 149.588 28.5977 149.416 28.2969C149.244 27.9961 149.158 27.5801 149.158 27.0488V23.5625H148.273V22.9473L149.223 22.4609L149.674 21.0723H150.541V22.5137H152.398V23.5625H150.541V27.0312C150.541 27.3594 150.623 27.6035 150.787 27.7637C150.951 27.9238 151.168 28.0039 151.438 28.0039Z" fill="#636363"/>
</svg>
