<svg width="176" height="49" viewBox="0 0 176 49" fill="none" xmlns="http://www.w3.org/2000/svg">
<g clip-path="url(#clip0_698_17111)">
<path d="M71.4993 33.4375H60.4993C59.9523 33.4375 59.4277 33.2202 59.0409 32.8334C58.6541 32.4466 58.4368 31.922 58.4368 31.375V24.5C58.4368 24.3177 58.5092 24.1428 58.6381 24.0139C58.7671 23.8849 58.9419 23.8125 59.1243 23.8125C59.3066 23.8125 59.4815 23.8849 59.6104 24.0139C59.7393 24.1428 59.8118 24.3177 59.8118 24.5V31.375C59.8118 31.5573 59.8842 31.7322 60.0131 31.8611C60.1421 31.9901 60.3169 32.0625 60.4993 32.0625H71.4993C71.6816 32.0625 71.8565 31.9901 71.9854 31.8611C72.1143 31.7322 72.1868 31.5573 72.1868 31.375V24.5C72.1868 24.3177 72.2592 24.1428 72.3881 24.0139C72.5171 23.8849 72.6919 23.8125 72.8743 23.8125C73.0566 23.8125 73.2315 23.8849 73.3604 24.0139C73.4893 24.1428 73.5618 24.3177 73.5618 24.5V31.375C73.5618 31.922 73.3445 32.4466 72.9577 32.8334C72.5709 33.2202 72.0463 33.4375 71.4993 33.4375Z" fill="#636363"/>
<path d="M65.312 33.4375H61.8745C61.6922 33.4375 61.5173 33.3651 61.3884 33.2361C61.2594 33.1072 61.187 32.9323 61.187 32.75V28.625C61.187 28.078 61.4043 27.5534 61.7911 27.1666C62.1779 26.7798 62.7025 26.5625 63.2495 26.5625H63.937C64.484 26.5625 65.0086 26.7798 65.3954 27.1666C65.7822 27.5534 65.9995 28.078 65.9995 28.625V32.75C65.9995 32.9323 65.9271 33.1072 65.7981 33.2361C65.6692 33.3651 65.4943 33.4375 65.312 33.4375ZM62.562 32.0625H64.6245V28.625C64.6245 28.4427 64.5521 28.2678 64.4231 28.1389C64.2942 28.0099 64.1193 27.9375 63.937 27.9375H63.2495C63.0672 27.9375 62.8923 28.0099 62.7634 28.1389C62.6344 28.2678 62.562 28.4427 62.562 28.625V32.0625Z" fill="#636363"/>
<path d="M72.1873 25.1875C71.4579 25.1875 70.7584 24.8978 70.2427 24.382C69.727 23.8663 69.4373 23.1668 69.4373 22.4375C69.4373 22.2552 69.5097 22.0803 69.6386 21.9514C69.7676 21.8224 69.9424 21.75 70.1248 21.75C70.3071 21.75 70.482 21.8224 70.6109 21.9514C70.7398 22.0803 70.8123 22.2552 70.8123 22.4375C70.8123 22.8022 70.9571 23.1519 71.215 23.4098C71.4728 23.6676 71.8226 23.8125 72.1873 23.8125C72.5519 23.8125 72.9017 23.6676 73.1595 23.4098C73.4174 23.1519 73.5623 22.8022 73.5623 22.4375V21.915L71.761 18.3125H60.2385L58.4373 21.915V22.4375C58.4373 22.8022 58.5821 23.1519 58.84 23.4098C59.0978 23.6676 59.4476 23.8125 59.8123 23.8125C60.1769 23.8125 60.5267 23.6676 60.7845 23.4098C61.0424 23.1519 61.1873 22.8022 61.1873 22.4375C61.1873 22.2552 61.2597 22.0803 61.3886 21.9514C61.5176 21.8224 61.6924 21.75 61.8748 21.75C62.0571 21.75 62.232 21.8224 62.3609 21.9514C62.4898 22.0803 62.5623 22.2552 62.5623 22.4375C62.5623 23.1668 62.2725 23.8663 61.7568 24.382C61.2411 24.8978 60.5416 25.1875 59.8123 25.1875C59.0829 25.1875 58.3834 24.8978 57.8677 24.382C57.352 23.8663 57.0623 23.1668 57.0623 22.4375V21.75C57.0629 21.6424 57.0888 21.5364 57.1379 21.4406L59.2004 17.3156C59.2575 17.2022 59.3449 17.1069 59.4529 17.0402C59.5609 16.9734 59.6853 16.9379 59.8123 16.9375H72.1873C72.3142 16.9379 72.4386 16.9734 72.5466 17.0402C72.6546 17.1069 72.742 17.2022 72.7991 17.3156L74.8616 21.4406C74.9107 21.5364 74.9366 21.6424 74.9373 21.75V22.4375C74.9373 23.1668 74.6475 23.8663 74.1318 24.382C73.6161 24.8978 72.9166 25.1875 72.1873 25.1875Z" fill="#636363"/>
<path d="M63.937 25.1875C63.2077 25.1875 62.5082 24.8978 61.9925 24.382C61.4767 23.8663 61.187 23.1668 61.187 22.4375C61.187 22.2552 61.2594 22.0803 61.3884 21.9514C61.5173 21.8224 61.6922 21.75 61.8745 21.75C62.0568 21.75 62.2317 21.8224 62.3606 21.9514C62.4896 22.0803 62.562 22.2552 62.562 22.4375C62.562 22.8022 62.7069 23.1519 62.9647 23.4098C63.2226 23.6676 63.5723 23.8125 63.937 23.8125C64.3017 23.8125 64.6514 23.6676 64.9093 23.4098C65.1671 23.1519 65.312 22.8022 65.312 22.4375C65.312 22.2552 65.3844 22.0803 65.5134 21.9514C65.6423 21.8224 65.8172 21.75 65.9995 21.75C66.1818 21.75 66.3567 21.8224 66.4856 21.9514C66.6146 22.0803 66.687 22.2552 66.687 22.4375C66.687 23.1668 66.3973 23.8663 65.8816 24.382C65.3658 24.8978 64.6664 25.1875 63.937 25.1875Z" fill="#636363"/>
<path d="M68.0623 25.1875C67.3329 25.1875 66.6334 24.8978 66.1177 24.382C65.602 23.8663 65.3123 23.1668 65.3123 22.4375C65.3123 22.2552 65.3847 22.0803 65.5136 21.9514C65.6426 21.8224 65.8174 21.75 65.9998 21.75C66.1821 21.75 66.357 21.8224 66.4859 21.9514C66.6148 22.0803 66.6873 22.2552 66.6873 22.4375C66.6873 22.8022 66.8321 23.1519 67.09 23.4098C67.3478 23.6676 67.6976 23.8125 68.0623 23.8125C68.4269 23.8125 68.7767 23.6676 69.0345 23.4098C69.2924 23.1519 69.4373 22.8022 69.4373 22.4375C69.4373 22.2552 69.5097 22.0803 69.6386 21.9514C69.7676 21.8224 69.9424 21.75 70.1248 21.75C70.3071 21.75 70.482 21.8224 70.6109 21.9514C70.7398 22.0803 70.8123 22.2552 70.8123 22.4375C70.8123 23.1668 70.5225 23.8663 70.0068 24.382C69.4911 24.8978 68.7916 25.1875 68.0623 25.1875Z" fill="#636363"/>
<path d="M70.1243 28.625H68.0618C67.8794 28.625 67.7046 28.5526 67.5756 28.4236C67.4467 28.2947 67.3743 28.1198 67.3743 27.9375C67.3743 27.7552 67.4467 27.5803 67.5756 27.4514C67.7046 27.3224 67.8794 27.25 68.0618 27.25H70.1243C70.3066 27.25 70.4815 27.3224 70.6104 27.4514C70.7393 27.5803 70.8118 27.7552 70.8118 27.9375C70.8118 28.1198 70.7393 28.2947 70.6104 28.4236C70.4815 28.5526 70.3066 28.625 70.1243 28.625Z" fill="#636363"/>
</g>
<path d="M89.0703 26.668C89.0703 27.1758 88.9453 27.6133 88.6953 27.9805C88.4492 28.3477 88.0938 28.6289 87.6289 28.8242C87.168 29.0195 86.6172 29.1172 85.9766 29.1172C85.6641 29.1172 85.3652 29.0996 85.0801 29.0645C84.7949 29.0293 84.5254 28.9785 84.2715 28.9121C84.0215 28.8418 83.793 28.7578 83.5859 28.6602V27.3359C83.9336 27.4883 84.3223 27.627 84.752 27.752C85.1816 27.873 85.6191 27.9336 86.0645 27.9336C86.4277 27.9336 86.7285 27.8867 86.9668 27.793C87.209 27.6953 87.3887 27.5586 87.5059 27.3828C87.623 27.2031 87.6816 26.9941 87.6816 26.7559C87.6816 26.502 87.6133 26.2871 87.4766 26.1113C87.3398 25.9355 87.1328 25.7754 86.8555 25.6309C86.582 25.4824 86.2383 25.3242 85.8242 25.1562C85.543 25.043 85.2734 24.9141 85.0156 24.7695C84.7617 24.625 84.5352 24.4551 84.3359 24.2598C84.1367 24.0645 83.9785 23.834 83.8613 23.5684C83.748 23.2988 83.6914 22.9824 83.6914 22.6191C83.6914 22.1348 83.8066 21.7207 84.0371 21.377C84.2715 21.0332 84.5996 20.7695 85.0215 20.5859C85.4473 20.4023 85.9434 20.3105 86.5098 20.3105C86.959 20.3105 87.3809 20.3574 87.7754 20.4512C88.1738 20.5449 88.5645 20.6777 88.9473 20.8496L88.502 21.9805C88.1504 21.8359 87.8086 21.7207 87.4766 21.6348C87.1484 21.5488 86.8125 21.5059 86.4688 21.5059C86.1719 21.5059 85.9199 21.5508 85.7129 21.6406C85.5059 21.7305 85.3477 21.8574 85.2383 22.0215C85.1328 22.1816 85.0801 22.373 85.0801 22.5957C85.0801 22.8457 85.1406 23.0566 85.2617 23.2285C85.3867 23.3965 85.5781 23.5508 85.8359 23.6914C86.0977 23.832 86.4336 23.9883 86.8438 24.1602C87.3164 24.3555 87.7168 24.5605 88.0449 24.7754C88.377 24.9902 88.6309 25.248 88.8066 25.5488C88.9824 25.8457 89.0703 26.2188 89.0703 26.668ZM93.166 22.3906C93.7441 22.3906 94.2402 22.5098 94.6543 22.748C95.0684 22.9863 95.3867 23.3242 95.6094 23.7617C95.832 24.1992 95.9434 24.7227 95.9434 25.332V26.0703H91.6133C91.6289 26.6992 91.7969 27.1836 92.1172 27.5234C92.4414 27.8633 92.8945 28.0332 93.4766 28.0332C93.8906 28.0332 94.2617 27.9941 94.5898 27.916C94.9219 27.834 95.2637 27.7148 95.6152 27.5586V28.6777C95.291 28.8301 94.9609 28.9414 94.625 29.0117C94.2891 29.082 93.8867 29.1172 93.418 29.1172C92.7812 29.1172 92.2207 28.9941 91.7363 28.748C91.2559 28.498 90.8789 28.127 90.6055 27.6348C90.3359 27.1426 90.2012 26.5312 90.2012 25.8008C90.2012 25.0742 90.3242 24.457 90.5703 23.9492C90.8164 23.4414 91.1621 23.0547 91.6074 22.7891C92.0527 22.5234 92.5723 22.3906 93.166 22.3906ZM93.166 23.4277C92.7324 23.4277 92.3809 23.5684 92.1113 23.8496C91.8457 24.1309 91.6895 24.543 91.6426 25.0859H94.5957C94.5918 24.7617 94.5371 24.4746 94.4316 24.2246C94.3301 23.9746 94.1738 23.7793 93.9629 23.6387C93.7559 23.498 93.4902 23.4277 93.166 23.4277ZM98.8789 29H97.4961V19.8828H98.8789V29ZM102.23 29H100.848V19.8828H102.23V29ZM105.576 22.5137V29H104.199V22.5137H105.576ZM104.896 20.0293C105.107 20.0293 105.289 20.0859 105.441 20.1992C105.598 20.3125 105.676 20.5078 105.676 20.7852C105.676 21.0586 105.598 21.2539 105.441 21.3711C105.289 21.4844 105.107 21.541 104.896 21.541C104.678 21.541 104.492 21.4844 104.34 21.3711C104.191 21.2539 104.117 21.0586 104.117 20.7852C104.117 20.5078 104.191 20.3125 104.34 20.1992C104.492 20.0859 104.678 20.0293 104.896 20.0293ZM110.932 22.3906C111.662 22.3906 112.23 22.5801 112.637 22.959C113.047 23.334 113.252 23.9375 113.252 24.7695V29H111.875V25.0273C111.875 24.5234 111.771 24.1465 111.564 23.8965C111.357 23.6426 111.037 23.5156 110.604 23.5156C109.975 23.5156 109.537 23.709 109.291 24.0957C109.049 24.4824 108.928 25.043 108.928 25.7773V29H107.551V22.5137H108.623L108.816 23.3926H108.893C109.033 23.166 109.207 22.9805 109.414 22.8359C109.625 22.6875 109.859 22.5762 110.117 22.502C110.379 22.4277 110.65 22.3906 110.932 22.3906ZM117.031 31.8828C116.152 31.8828 115.479 31.7246 115.01 31.4082C114.541 31.0918 114.307 30.6484 114.307 30.0781C114.307 29.6797 114.432 29.3418 114.682 29.0645C114.932 28.791 115.289 28.6016 115.754 28.4961C115.578 28.418 115.426 28.2969 115.297 28.1328C115.172 27.9648 115.109 27.7793 115.109 27.5762C115.109 27.334 115.178 27.127 115.314 26.9551C115.451 26.7832 115.656 26.6172 115.93 26.457C115.59 26.3125 115.316 26.0781 115.109 25.7539C114.906 25.4258 114.805 25.041 114.805 24.5996C114.805 24.1309 114.904 23.7324 115.104 23.4043C115.303 23.0723 115.594 22.8203 115.977 22.6484C116.359 22.4727 116.822 22.3848 117.365 22.3848C117.482 22.3848 117.609 22.3926 117.746 22.4082C117.887 22.4199 118.016 22.4355 118.133 22.4551C118.254 22.4707 118.346 22.4883 118.408 22.5078H120.652V23.2754L119.551 23.4805C119.656 23.6289 119.74 23.7988 119.803 23.9902C119.865 24.1777 119.896 24.3828 119.896 24.6055C119.896 25.2773 119.664 25.8066 119.199 26.1934C118.738 26.5762 118.102 26.7676 117.289 26.7676C117.094 26.7598 116.904 26.7441 116.721 26.7207C116.58 26.8066 116.473 26.9023 116.398 27.0078C116.324 27.1094 116.287 27.2246 116.287 27.3535C116.287 27.459 116.324 27.5449 116.398 27.6113C116.473 27.6738 116.582 27.7207 116.727 27.752C116.875 27.7832 117.055 27.7988 117.266 27.7988H118.385C119.096 27.7988 119.639 27.9492 120.014 28.25C120.389 28.5508 120.576 28.9922 120.576 29.5742C120.576 30.3125 120.271 30.8809 119.662 31.2793C119.053 31.6816 118.176 31.8828 117.031 31.8828ZM117.084 30.916C117.564 30.916 117.969 30.8691 118.297 30.7754C118.625 30.6816 118.873 30.5469 119.041 30.3711C119.209 30.1992 119.293 29.9941 119.293 29.7559C119.293 29.5449 119.24 29.3828 119.135 29.2695C119.029 29.1562 118.871 29.0781 118.66 29.0352C118.449 28.9922 118.188 28.9707 117.875 28.9707H116.855C116.602 28.9707 116.377 29.0098 116.182 29.0879C115.986 29.1699 115.834 29.2871 115.725 29.4395C115.619 29.5918 115.566 29.7754 115.566 29.9902C115.566 30.2871 115.697 30.5156 115.959 30.6758C116.225 30.8359 116.6 30.916 117.084 30.916ZM117.354 25.8652C117.756 25.8652 118.055 25.7559 118.25 25.5371C118.445 25.3145 118.543 25.002 118.543 24.5996C118.543 24.1621 118.441 23.834 118.238 23.6152C118.039 23.3965 117.742 23.2871 117.348 23.2871C116.961 23.2871 116.666 23.3984 116.463 23.6211C116.264 23.8438 116.164 24.1738 116.164 24.6113C116.164 25.0059 116.264 25.3145 116.463 25.5371C116.666 25.7559 116.963 25.8652 117.354 25.8652Z" fill="#636363"/>
<defs>
<clipPath id="clip0_698_17111">
<rect width="22" height="22" fill="white" transform="translate(55 13.5)"/>
</clipPath>
</defs>
</svg>
