<svg width="184" height="49" viewBox="0 0 184 49" fill="none" xmlns="http://www.w3.org/2000/svg">
<rect width="184" height="49" fill="#FC8019" fill-opacity="0.1"/>
<g clip-path="url(#clip0_698_21098)">
<path d="M67.9993 33.4375H56.9993C56.4523 33.4375 55.9277 33.2202 55.5409 32.8334C55.1541 32.4466 54.9368 31.922 54.9368 31.375V24.5C54.9368 24.3177 55.0092 24.1428 55.1381 24.0139C55.2671 23.8849 55.4419 23.8125 55.6243 23.8125C55.8066 23.8125 55.9815 23.8849 56.1104 24.0139C56.2393 24.1428 56.3118 24.3177 56.3118 24.5V31.375C56.3118 31.5573 56.3842 31.7322 56.5131 31.8611C56.6421 31.9901 56.8169 32.0625 56.9993 32.0625H67.9993C68.1816 32.0625 68.3565 31.9901 68.4854 31.8611C68.6143 31.7322 68.6868 31.5573 68.6868 31.375V24.5C68.6868 24.3177 68.7592 24.1428 68.8881 24.0139C69.0171 23.8849 69.1919 23.8125 69.3743 23.8125C69.5566 23.8125 69.7315 23.8849 69.8604 24.0139C69.9893 24.1428 70.0618 24.3177 70.0618 24.5V31.375C70.0618 31.922 69.8445 32.4466 69.4577 32.8334C69.0709 33.2202 68.5463 33.4375 67.9993 33.4375Z" fill="#FC8019"/>
<path d="M61.812 33.4375H58.3745C58.1922 33.4375 58.0173 33.3651 57.8884 33.2361C57.7594 33.1072 57.687 32.9323 57.687 32.75V28.625C57.687 28.078 57.9043 27.5534 58.2911 27.1666C58.6779 26.7798 59.2025 26.5625 59.7495 26.5625H60.437C60.984 26.5625 61.5086 26.7798 61.8954 27.1666C62.2822 27.5534 62.4995 28.078 62.4995 28.625V32.75C62.4995 32.9323 62.4271 33.1072 62.2981 33.2361C62.1692 33.3651 61.9943 33.4375 61.812 33.4375ZM59.062 32.0625H61.1245V28.625C61.1245 28.4427 61.0521 28.2678 60.9231 28.1389C60.7942 28.0099 60.6193 27.9375 60.437 27.9375H59.7495C59.5672 27.9375 59.3923 28.0099 59.2634 28.1389C59.1344 28.2678 59.062 28.4427 59.062 28.625V32.0625Z" fill="#FC8019"/>
<path d="M68.6873 25.1875C67.9579 25.1875 67.2584 24.8978 66.7427 24.382C66.227 23.8663 65.9373 23.1668 65.9373 22.4375C65.9373 22.2552 66.0097 22.0803 66.1386 21.9514C66.2676 21.8224 66.4424 21.75 66.6248 21.75C66.8071 21.75 66.982 21.8224 67.1109 21.9514C67.2398 22.0803 67.3123 22.2552 67.3123 22.4375C67.3123 22.8022 67.4571 23.1519 67.715 23.4098C67.9728 23.6676 68.3226 23.8125 68.6873 23.8125C69.0519 23.8125 69.4017 23.6676 69.6595 23.4098C69.9174 23.1519 70.0623 22.8022 70.0623 22.4375V21.915L68.261 18.3125H56.7385L54.9373 21.915V22.4375C54.9373 22.8022 55.0821 23.1519 55.34 23.4098C55.5978 23.6676 55.9476 23.8125 56.3123 23.8125C56.6769 23.8125 57.0267 23.6676 57.2845 23.4098C57.5424 23.1519 57.6873 22.8022 57.6873 22.4375C57.6873 22.2552 57.7597 22.0803 57.8886 21.9514C58.0176 21.8224 58.1924 21.75 58.3748 21.75C58.5571 21.75 58.732 21.8224 58.8609 21.9514C58.9898 22.0803 59.0623 22.2552 59.0623 22.4375C59.0623 23.1668 58.7725 23.8663 58.2568 24.382C57.7411 24.8978 57.0416 25.1875 56.3123 25.1875C55.5829 25.1875 54.8834 24.8978 54.3677 24.382C53.852 23.8663 53.5623 23.1668 53.5623 22.4375V21.75C53.5629 21.6424 53.5888 21.5364 53.6379 21.4406L55.7004 17.3156C55.7575 17.2022 55.8449 17.1069 55.9529 17.0402C56.0609 16.9734 56.1853 16.9379 56.3123 16.9375H68.6873C68.8142 16.9379 68.9386 16.9734 69.0466 17.0402C69.1546 17.1069 69.242 17.2022 69.2991 17.3156L71.3616 21.4406C71.4107 21.5364 71.4366 21.6424 71.4373 21.75V22.4375C71.4373 23.1668 71.1475 23.8663 70.6318 24.382C70.1161 24.8978 69.4166 25.1875 68.6873 25.1875Z" fill="#FC8019"/>
<path d="M60.437 25.1875C59.7077 25.1875 59.0082 24.8978 58.4925 24.382C57.9767 23.8663 57.687 23.1668 57.687 22.4375C57.687 22.2552 57.7594 22.0803 57.8884 21.9514C58.0173 21.8224 58.1922 21.75 58.3745 21.75C58.5568 21.75 58.7317 21.8224 58.8606 21.9514C58.9896 22.0803 59.062 22.2552 59.062 22.4375C59.062 22.8022 59.2069 23.1519 59.4647 23.4098C59.7226 23.6676 60.0723 23.8125 60.437 23.8125C60.8017 23.8125 61.1514 23.6676 61.4093 23.4098C61.6671 23.1519 61.812 22.8022 61.812 22.4375C61.812 22.2552 61.8844 22.0803 62.0134 21.9514C62.1423 21.8224 62.3172 21.75 62.4995 21.75C62.6818 21.75 62.8567 21.8224 62.9856 21.9514C63.1146 22.0803 63.187 22.2552 63.187 22.4375C63.187 23.1668 62.8973 23.8663 62.3816 24.382C61.8658 24.8978 61.1664 25.1875 60.437 25.1875Z" fill="#FC8019"/>
<path d="M64.5623 25.1875C63.8329 25.1875 63.1334 24.8978 62.6177 24.382C62.102 23.8663 61.8123 23.1668 61.8123 22.4375C61.8123 22.2552 61.8847 22.0803 62.0136 21.9514C62.1426 21.8224 62.3174 21.75 62.4998 21.75C62.6821 21.75 62.857 21.8224 62.9859 21.9514C63.1148 22.0803 63.1873 22.2552 63.1873 22.4375C63.1873 22.8022 63.3321 23.1519 63.59 23.4098C63.8478 23.6676 64.1976 23.8125 64.5623 23.8125C64.9269 23.8125 65.2767 23.6676 65.5345 23.4098C65.7924 23.1519 65.9373 22.8022 65.9373 22.4375C65.9373 22.2552 66.0097 22.0803 66.1386 21.9514C66.2676 21.8224 66.4424 21.75 66.6248 21.75C66.8071 21.75 66.982 21.8224 67.1109 21.9514C67.2398 22.0803 67.3123 22.2552 67.3123 22.4375C67.3123 23.1668 67.0225 23.8663 66.5068 24.382C65.9911 24.8978 65.2916 25.1875 64.5623 25.1875Z" fill="#FC8019"/>
<path d="M66.6243 28.625H64.5618C64.3794 28.625 64.2046 28.5526 64.0756 28.4236C63.9467 28.2947 63.8743 28.1198 63.8743 27.9375C63.8743 27.7552 63.9467 27.5803 64.0756 27.4514C64.2046 27.3224 64.3794 27.25 64.5618 27.25H66.6243C66.8066 27.25 66.9815 27.3224 67.1104 27.4514C67.2393 27.5803 67.3118 27.7552 67.3118 27.9375C67.3118 28.1198 67.2393 28.2947 67.1104 28.4236C66.9815 28.5526 66.8066 28.625 66.6243 28.625Z" fill="#FC8019"/>
</g>
<path d="M87.5703 26.668C87.5703 27.1758 87.4453 27.6133 87.1953 27.9805C86.9492 28.3477 86.5938 28.6289 86.1289 28.8242C85.668 29.0195 85.1172 29.1172 84.4766 29.1172C84.1641 29.1172 83.8652 29.0996 83.5801 29.0645C83.2949 29.0293 83.0254 28.9785 82.7715 28.9121C82.5215 28.8418 82.293 28.7578 82.0859 28.6602V27.3359C82.4336 27.4883 82.8223 27.627 83.252 27.752C83.6816 27.873 84.1191 27.9336 84.5645 27.9336C84.9277 27.9336 85.2285 27.8867 85.4668 27.793C85.709 27.6953 85.8887 27.5586 86.0059 27.3828C86.123 27.2031 86.1816 26.9941 86.1816 26.7559C86.1816 26.502 86.1133 26.2871 85.9766 26.1113C85.8398 25.9355 85.6328 25.7754 85.3555 25.6309C85.082 25.4824 84.7383 25.3242 84.3242 25.1562C84.043 25.043 83.7734 24.9141 83.5156 24.7695C83.2617 24.625 83.0352 24.4551 82.8359 24.2598C82.6367 24.0645 82.4785 23.834 82.3613 23.5684C82.248 23.2988 82.1914 22.9824 82.1914 22.6191C82.1914 22.1348 82.3066 21.7207 82.5371 21.377C82.7715 21.0332 83.0996 20.7695 83.5215 20.5859C83.9473 20.4023 84.4434 20.3105 85.0098 20.3105C85.459 20.3105 85.8809 20.3574 86.2754 20.4512C86.6738 20.5449 87.0645 20.6777 87.4473 20.8496L87.002 21.9805C86.6504 21.8359 86.3086 21.7207 85.9766 21.6348C85.6484 21.5488 85.3125 21.5059 84.9688 21.5059C84.6719 21.5059 84.4199 21.5508 84.2129 21.6406C84.0059 21.7305 83.8477 21.8574 83.7383 22.0215C83.6328 22.1816 83.5801 22.373 83.5801 22.5957C83.5801 22.8457 83.6406 23.0566 83.7617 23.2285C83.8867 23.3965 84.0781 23.5508 84.3359 23.6914C84.5977 23.832 84.9336 23.9883 85.3438 24.1602C85.8164 24.3555 86.2168 24.5605 86.5449 24.7754C86.877 24.9902 87.1309 25.248 87.3066 25.5488C87.4824 25.8457 87.5703 26.2188 87.5703 26.668ZM91.666 22.3906C92.2441 22.3906 92.7402 22.5098 93.1543 22.748C93.5684 22.9863 93.8867 23.3242 94.1094 23.7617C94.332 24.1992 94.4434 24.7227 94.4434 25.332V26.0703H90.1133C90.1289 26.6992 90.2969 27.1836 90.6172 27.5234C90.9414 27.8633 91.3945 28.0332 91.9766 28.0332C92.3906 28.0332 92.7617 27.9941 93.0898 27.916C93.4219 27.834 93.7637 27.7148 94.1152 27.5586V28.6777C93.791 28.8301 93.4609 28.9414 93.125 29.0117C92.7891 29.082 92.3867 29.1172 91.918 29.1172C91.2812 29.1172 90.7207 28.9941 90.2363 28.748C89.7559 28.498 89.3789 28.127 89.1055 27.6348C88.8359 27.1426 88.7012 26.5312 88.7012 25.8008C88.7012 25.0742 88.8242 24.457 89.0703 23.9492C89.3164 23.4414 89.6621 23.0547 90.1074 22.7891C90.5527 22.5234 91.0723 22.3906 91.666 22.3906ZM91.666 23.4277C91.2324 23.4277 90.8809 23.5684 90.6113 23.8496C90.3457 24.1309 90.1895 24.543 90.1426 25.0859H93.0957C93.0918 24.7617 93.0371 24.4746 92.9316 24.2246C92.8301 23.9746 92.6738 23.7793 92.4629 23.6387C92.2559 23.498 91.9902 23.4277 91.666 23.4277ZM97.3789 29H95.9961V19.8828H97.3789V29ZM100.73 29H99.3477V19.8828H100.73V29ZM104.076 22.5137V29H102.699V22.5137H104.076ZM103.396 20.0293C103.607 20.0293 103.789 20.0859 103.941 20.1992C104.098 20.3125 104.176 20.5078 104.176 20.7852C104.176 21.0586 104.098 21.2539 103.941 21.3711C103.789 21.4844 103.607 21.541 103.396 21.541C103.178 21.541 102.992 21.4844 102.84 21.3711C102.691 21.2539 102.617 21.0586 102.617 20.7852C102.617 20.5078 102.691 20.3125 102.84 20.1992C102.992 20.0859 103.178 20.0293 103.396 20.0293ZM109.432 22.3906C110.162 22.3906 110.73 22.5801 111.137 22.959C111.547 23.334 111.752 23.9375 111.752 24.7695V29H110.375V25.0273C110.375 24.5234 110.271 24.1465 110.064 23.8965C109.857 23.6426 109.537 23.5156 109.104 23.5156C108.475 23.5156 108.037 23.709 107.791 24.0957C107.549 24.4824 107.428 25.043 107.428 25.7773V29H106.051V22.5137H107.123L107.316 23.3926H107.393C107.533 23.166 107.707 22.9805 107.914 22.8359C108.125 22.6875 108.359 22.5762 108.617 22.502C108.879 22.4277 109.15 22.3906 109.432 22.3906ZM115.531 31.8828C114.652 31.8828 113.979 31.7246 113.51 31.4082C113.041 31.0918 112.807 30.6484 112.807 30.0781C112.807 29.6797 112.932 29.3418 113.182 29.0645C113.432 28.791 113.789 28.6016 114.254 28.4961C114.078 28.418 113.926 28.2969 113.797 28.1328C113.672 27.9648 113.609 27.7793 113.609 27.5762C113.609 27.334 113.678 27.127 113.814 26.9551C113.951 26.7832 114.156 26.6172 114.43 26.457C114.09 26.3125 113.816 26.0781 113.609 25.7539C113.406 25.4258 113.305 25.041 113.305 24.5996C113.305 24.1309 113.404 23.7324 113.604 23.4043C113.803 23.0723 114.094 22.8203 114.477 22.6484C114.859 22.4727 115.322 22.3848 115.865 22.3848C115.982 22.3848 116.109 22.3926 116.246 22.4082C116.387 22.4199 116.516 22.4355 116.633 22.4551C116.754 22.4707 116.846 22.4883 116.908 22.5078H119.152V23.2754L118.051 23.4805C118.156 23.6289 118.24 23.7988 118.303 23.9902C118.365 24.1777 118.396 24.3828 118.396 24.6055C118.396 25.2773 118.164 25.8066 117.699 26.1934C117.238 26.5762 116.602 26.7676 115.789 26.7676C115.594 26.7598 115.404 26.7441 115.221 26.7207C115.08 26.8066 114.973 26.9023 114.898 27.0078C114.824 27.1094 114.787 27.2246 114.787 27.3535C114.787 27.459 114.824 27.5449 114.898 27.6113C114.973 27.6738 115.082 27.7207 115.227 27.752C115.375 27.7832 115.555 27.7988 115.766 27.7988H116.885C117.596 27.7988 118.139 27.9492 118.514 28.25C118.889 28.5508 119.076 28.9922 119.076 29.5742C119.076 30.3125 118.771 30.8809 118.162 31.2793C117.553 31.6816 116.676 31.8828 115.531 31.8828ZM115.584 30.916C116.064 30.916 116.469 30.8691 116.797 30.7754C117.125 30.6816 117.373 30.5469 117.541 30.3711C117.709 30.1992 117.793 29.9941 117.793 29.7559C117.793 29.5449 117.74 29.3828 117.635 29.2695C117.529 29.1562 117.371 29.0781 117.16 29.0352C116.949 28.9922 116.688 28.9707 116.375 28.9707H115.355C115.102 28.9707 114.877 29.0098 114.682 29.0879C114.486 29.1699 114.334 29.2871 114.225 29.4395C114.119 29.5918 114.066 29.7754 114.066 29.9902C114.066 30.2871 114.197 30.5156 114.459 30.6758C114.725 30.8359 115.1 30.916 115.584 30.916ZM115.854 25.8652C116.256 25.8652 116.555 25.7559 116.75 25.5371C116.945 25.3145 117.043 25.002 117.043 24.5996C117.043 24.1621 116.941 23.834 116.738 23.6152C116.539 23.3965 116.242 23.2871 115.848 23.2871C115.461 23.2871 115.166 23.3984 114.963 23.6211C114.764 23.8438 114.664 24.1738 114.664 24.6113C114.664 25.0059 114.764 25.3145 114.963 25.5371C115.166 25.7559 115.463 25.8652 115.854 25.8652Z" fill="#FC8019"/>
<defs>
<clipPath id="clip0_698_21098">
<rect width="22" height="22" fill="white" transform="translate(51.5 13.5)"/>
</clipPath>
</defs>
</svg>
