<svg width="18" height="18" viewBox="0 0 18 18" fill="none" xmlns="http://www.w3.org/2000/svg">
<path d="M18 7.50004C18 7.44529 17.994 7.39071 17.982 7.33729L17.007 2.9363C16.8258 2.10098 16.363 1.35334 15.6961 0.818746C15.0292 0.284148 14.1987 -0.00490227 13.344 6.29164e-05H4.656C3.80179 -0.0042123 2.97205 0.285153 2.30575 0.819695C1.63945 1.35424 1.17705 2.10149 0.996001 2.9363L0.018001 7.33729C0.0060071 7.39071 -2.97449e-05 7.44529 1.02705e-06 7.50004V8.25003C-0.000604078 8.98023 0.266192 9.68537 0.750001 10.2323V14.25C0.751192 15.2442 1.14666 16.1973 1.84967 16.9003C2.55267 17.6033 3.5058 17.9988 4.5 18H13.5C14.4942 17.9988 15.4473 17.6033 16.1503 16.9003C16.8533 16.1973 17.2488 15.2442 17.25 14.25V10.2323C17.7338 9.68537 18.0006 8.98023 18 8.25003V7.50004ZM1.5 7.58179L2.46 3.2618C2.56878 2.76099 2.84626 2.31274 3.24601 1.99204C3.64576 1.67134 4.14352 1.49766 4.656 1.50006H5.25V3.75005C5.25 3.94896 5.32902 4.13973 5.46967 4.28038C5.61032 4.42103 5.80109 4.50005 6 4.50005C6.19891 4.50005 6.38968 4.42103 6.53033 4.28038C6.67098 4.13973 6.75 3.94896 6.75 3.75005V1.50006H11.25V3.75005C11.25 3.94896 11.329 4.13973 11.4697 4.28038C11.6103 4.42103 11.8011 4.50005 12 4.50005C12.1989 4.50005 12.3897 4.42103 12.5303 4.28038C12.671 4.13973 12.75 3.94896 12.75 3.75005V1.50006H13.344C13.8565 1.49766 14.3542 1.67134 14.754 1.99204C15.1537 2.31274 15.4312 2.76099 15.54 3.2618L16.5 7.58179V8.25003C16.5 8.64786 16.342 9.02939 16.0607 9.31069C15.7794 9.59199 15.3978 9.75003 15 9.75003H14.25C13.8522 9.75003 13.4706 9.59199 13.1893 9.31069C12.908 9.02939 12.75 8.64786 12.75 8.25003C12.75 8.05112 12.671 7.86036 12.5303 7.71971C12.3897 7.57905 12.1989 7.50004 12 7.50004C11.8011 7.50004 11.6103 7.57905 11.4697 7.71971C11.329 7.86036 11.25 8.05112 11.25 8.25003C11.25 8.64786 11.092 9.02939 10.8107 9.31069C10.5294 9.59199 10.1478 9.75003 9.75 9.75003H8.25C7.85218 9.75003 7.47064 9.59199 7.18934 9.31069C6.90804 9.02939 6.75 8.64786 6.75 8.25003C6.75 8.05112 6.67098 7.86036 6.53033 7.71971C6.38968 7.57905 6.19891 7.50004 6 7.50004C5.80109 7.50004 5.61032 7.57905 5.46967 7.71971C5.32902 7.86036 5.25 8.05112 5.25 8.25003C5.25 8.64786 5.09197 9.02939 4.81066 9.31069C4.52936 9.59199 4.14783 9.75003 3.75 9.75003H3C2.60218 9.75003 2.22065 9.59199 1.93934 9.31069C1.65804 9.02939 1.5 8.64786 1.5 8.25003V7.58179ZM13.5 16.5H4.5C3.90326 16.5 3.33097 16.263 2.90901 15.841C2.48705 15.419 2.25 14.8467 2.25 14.25V11.1548C2.49495 11.2182 2.74697 11.2502 3 11.25H3.75C4.17586 11.2502 4.59687 11.1596 4.98488 10.9841C5.37289 10.8086 5.71897 10.5522 6 10.2323C6.28103 10.5522 6.62711 10.8086 7.01512 10.9841C7.40313 11.1596 7.82414 11.2502 8.25 11.25H9.75C10.1759 11.2502 10.5969 11.1596 10.9849 10.9841C11.3729 10.8086 11.719 10.5522 12 10.2323C12.281 10.5522 12.6271 10.8086 13.0151 10.9841C13.4031 11.1596 13.8241 11.2502 14.25 11.25H15C15.253 11.2502 15.5051 11.2182 15.75 11.1548V14.25C15.75 14.8467 15.5129 15.419 15.091 15.841C14.669 16.263 14.0967 16.5 13.5 16.5Z" fill="#4A4A4A"/>
</svg>
