<svg width="17" height="17" viewBox="0 0 17 17" fill="none" xmlns="http://www.w3.org/2000/svg">
<path d="M15.8952 11.6591C16.2815 12.0461 16.4985 12.5711 16.4985 13.1181C16.4985 13.6651 16.2815 14.1901 15.8952 14.5781L15.2885 15.2771C9.8285 20.5041 -3.45819 7.22111 1.68851 1.74411L2.45521 1.07711C2.84301 0.701115 3.36311 0.494112 3.90301 0.499112C4.44281 0.504112 4.95901 0.721123 5.33981 1.10412C5.36051 1.12412 6.5958 2.72912 6.5958 2.72912C6.9624 3.11412 7.16641 3.62613 7.16561 4.15713C7.16471 4.68913 6.95901 5.20013 6.59121 5.58413L5.8192 6.5541C6.2464 7.5921 6.87451 8.53611 7.66751 9.33011C8.46051 10.1251 9.40261 10.7551 10.4398 11.1841L11.4165 10.4081C11.8004 10.0401 12.3112 9.83513 12.8427 9.83413C13.3742 9.83313 13.8855 10.0371 14.2705 10.4041C14.2705 10.4041 15.8745 11.6381 15.8952 11.6591ZM14.9778 12.6281C14.9778 12.6281 13.3825 11.4011 13.3618 11.3801C13.2245 11.2441 13.0389 11.1681 12.8455 11.1681C12.6521 11.1681 12.4665 11.2441 12.3292 11.3801C12.3112 11.3991 10.9665 12.4701 10.9665 12.4701C10.8759 12.5421 10.768 12.5901 10.6536 12.6071C10.5391 12.6251 10.422 12.6131 10.3138 12.5721C8.97011 12.0711 7.74971 11.2881 6.73511 10.2751C5.72041 9.26211 4.93541 8.04313 4.43321 6.70013C4.38861 6.59013 4.37411 6.47012 4.39111 6.35312C4.40811 6.23612 4.45601 6.12511 4.52981 6.03311C4.52981 6.03311 5.60121 4.68813 5.61921 4.67013C5.75531 4.53313 5.83171 4.34711 5.83171 4.15411C5.83171 3.96111 5.75531 3.77512 5.61921 3.63812C5.59851 3.61812 4.37121 2.02112 4.37121 2.02112C4.23181 1.89612 4.04981 1.82913 3.86271 1.83413C3.67551 1.83913 3.4973 1.91512 3.3645 2.04712L2.59781 2.71411C-1.16349 7.23611 10.3505 18.1121 14.3138 14.3661L14.9212 13.6661C15.0635 13.5341 15.149 13.3521 15.1595 13.1591C15.1701 12.9651 15.1049 12.7751 14.9778 12.6281Z" fill="#FC8019"/>
</svg>
